<?xml version="1.0" encoding="utf-8"?>
<!-- Generator: Adobe Illustrator 26.0.3, SVG Export Plug-In . SVG Version: 6.00 Build 0)  -->
<svg version="1.1" id="Layer_1" xmlns="http://www.w3.org/2000/svg" xmlns:xlink="http://www.w3.org/1999/xlink" x="0px" y="0px"
	 viewBox="0 0 1000 1000" style="enable-background:new 0 0 1000 1000;" xml:space="preserve">
<circle style="fill:#0F7AB7;" cx="499" cy="499" r="487"/>
<g>
	<g>
		<path style="fill:#1B3F63;" d="M162.7,78.4h14.5c31,0,380.1,25.2,381.4,56.2L588,842.4c1.3,31-22.8,56.2-53.9,56.2H196.8
			c-31,0-57.3-25.2-58.6-56.2l-29.4-707.7C107.5,103.6,131.7,78.4,162.7,78.4z"/>
		<path style="fill:#E7F2F2;" d="M182.5,78.4h337.3c31,0,57.3,25.2,58.6,56.2l29.4,707.7c1.3,31-22.8,56.2-53.9,56.2H216.5
			c-31,0-57.3-25.2-58.6-56.2l-29.4-707.7C127.3,103.6,151.4,78.4,182.5,78.4z"/>
		<g>
			<path style="fill:#FFFFFF;" d="M184.7,86.4h332.9c27.6,0,50.8,22.3,52,49.9l29.3,704.9c1.2,27.7-20.4,50.2-48.1,50.2H222
				c-29.7,0-54.8-24.1-56.1-53.8l-29.1-701.2C135.7,108.7,157.1,86.4,184.7,86.4z"/>
		</g>
		<path style="fill:#434A59;" d="M303.8,113.1h100.5c1.9,0,3.5-1.6,3.4-3.5l0-0.9c-0.1-1.9-1.7-3.5-3.7-3.5H303.5
			c-1.9,0-3.5,1.6-3.4,3.5l0,0.9C300.2,111.5,301.9,113.1,303.8,113.1z"/>
		<path style="fill:#434A59;" d="M418.2,109.1c0.1,2.2,2,4,4.2,4c2.2,0,3.9-1.8,3.8-4c-0.1-2.2-2-4-4.2-4
			C419.8,105.1,418.1,106.9,418.2,109.1z"/>
		<path style="fill:#434A59;" d="M284.1,109.1c0.1,2.2,2,4,4.2,4c2.2,0,3.9-1.8,3.8-4c-0.1-2.2-2-4-4.2-4
			C285.7,105.1,284,106.9,284.1,109.1z"/>
		<g>
			<path style="fill:#EDF1F4;" d="M191.7,137.4l321.9,4c27.6,0,50.8,22.3,52,49.9l28.3,646.9c1.2,27.7-20.4,50.2-48.1,50.2L227,887
				c-29.7,0-53.8-26.8-55-56.5l-28.1-643.2C142.7,159.7,164.1,137.4,191.7,137.4z"/>
		</g>
	</g>
	<g>
		<path style="fill:#E04A4A;" d="M526.2,380.4l-314.8,3c-24.2,0.2-43.2,20.2-42.2,44.4l1.3,17.8c1,24.2,21.6,43.8,45.8,43.5l314.8-3
			c24.2-0.2,43.2-20.2,42.2-44.4L572,424C571,399.8,550.4,380.2,526.2,380.4z"/>
		
			<text transform="matrix(1.068 -1.441400e-02 9.008753e-02 0.9959 211.0004 450.7916)" style="fill:#FFFFFF; font-family:'Poppins-Bold'; font-size:40.4426px;">KONTAKT MEG</text>
	</g>
	<path style="fill:#FFFFFF;" d="M128.7,394.9h0.7c1.5,0,2.6-1.2,2.6-2.7l-5.3-127.7c-0.1-1.5-1.3-2.7-2.8-2.7h-0.7
		c-1.5,0-2.6,1.2-2.6,2.7l5.3,127.7C126,393.7,127.3,394.9,128.7,394.9z"/>
</g>
<path style="fill:#8A9998;" d="M588,374.2c-21.6,5.8-61.7,14.8-87.4,19.6c-35.9,6.7-51.7,13.9-51.7,13.9s23.2,19.8,64.8,23.5
	c27.9,2.4,58.4-8.8,76.2-17.9L588,374.2z"/>
<g>
	<path style="fill:#404859;" d="M784.1,896.5c5.1-2.2,5.8-6.8,8-11.1c0.1-0.3,1-6.5,1-7c0-2.1,6.3-7.8,9.1-3.3
		c5.7,8.8,12.9-4.6,12.5-1c-1,10.9,3,28.4-1.1,29.5c-8.7,2.5-49.2,5.3-50,1C763.3,902.1,775.2,900.3,784.1,896.5z"/>
</g>
<g>
	<path style="fill:#404859;" d="M655.3,896.5c5.1-2.2,5.8-6.8,8-11.1c0.1-0.3,1-6.5,1-7c0-2.1,6.3-7.8,9.1-3.3
		c5.7,8.8,12.9-4.6,12.5-1c-1,10.9,3,28.4-1.1,29.5c-8.7,2.5-49.2,5.3-50,1C634.5,902.1,646.4,900.3,655.3,896.5z"/>
</g>
<g>
	<g>
		<g>
			<path style="fill:#919FB5;" d="M613.6,221.8c-28.6-8.6-42.4,112.9-53.1,118.9c-10.2,5.8-103.1,18.9-132.7,21.5
				c-6,0.5-3,32.3,4.4,38.6c28.4,24.2,63.6,24.2,145.5-1c35.9-11.1,46.1-44.2,52.1-72.8C640.2,277.7,628.8,226.3,613.6,221.8z"/>
		</g>
	</g>
</g>
<g>
	<path style="fill:#82BC3D;" d="M644.5,455.6c1.2-26.3,2.4-69.9,3.4-73.1c16.2-50.2,121-11.3,132.3,2.4c17.8,21,16.7,47.9,20.7,93
		c1.8,20.3,21.6,402.9,21.6,402.9s-13.8,4.4-29.6,2.9c-11.2-1-18.8-2.9-18.8-2.9c-35.8-138.7-60.6-395.7-60.6-395.7
		c-2.2,61-6.1,398.9-6.1,398.9s-24.4,0.5-44.4,2.1c-14.8,1.2-18.9-5.7-18.9-5.7S641.7,643.7,644.5,455.6z"/>
</g>
<g>
	<path style="fill:#7FA062;" d="M787.8,396.4l-128.1,42.5c0,0,43.3,10.9,91.6,5.1c21-2.5,36-4.6,46.3-6.2
		C796,421.2,793.7,407.8,787.8,396.4z"/>
</g>
<g>
	<g>
		<path style="fill:#AFBDD7;" d="M637.9,438.1c-6.2-97.3-57.3-179.9-40.1-207.8c30-48.7,91.4-37.1,115.4-9
			c31.6,37,89.9,163.7,82.9,183.7c-8.4,12.4-21.5,21.9-92.4,32.4C690.2,439.4,652.5,439.3,637.9,438.1z"/>
	</g>
</g>
<g>
	<g>
		<path style="fill:#AF5546;" d="M594.4,160.8c0,0-7.6-3.9-2.1-10.6c16-19.6,31.2-8.5,36.3,6.5c3.4,10-1.7,20.2-1.7,20.2
			S599.2,172,594.4,160.8z"/>
	</g>
</g>
<g>
	<g>
		<path style="fill:#FF867A;" d="M622.8,168.2l21.3,31.8c2.6,4.9-6.7,16.3-14.1,17.6c-2,0.4-5.2,1.4-5.7-2.9l-9.1-33.8L622.8,168.2z
			"/>
	</g>
</g>
<g>
	<g>
		<path style="fill:#AF5546;" d="M612.6,141.5c0,0-2.3-6.3-10.8-5.6c-8.5,0.7-7.2,5.1-10.9,13.6c-3.7,8.5,2.5,16.1,13.6,18.4
			C612.2,169.5,622.7,150.6,612.6,141.5z"/>
	</g>
</g>
<g>
	<g>
		<path style="fill:#FF867A;" d="M616.5,156.3l7.8,11.1c3,5.2,2.8,11.7-1.5,15.8c-4,3.8-6.6,6.3-12.4,7.3c-4.9,0.8-8.7-3-10.5-9.1
			c-2.4-8-2.3-16.1-2.1-20.4c0.3-4.6,2.8-8,6.1-9.3C607.7,150.3,607.9,156,616.5,156.3z"/>
	</g>
</g>
<g>
	<g>
		<path style="fill:#C66C67;" d="M606.6,173.3c-1.2,0.2-2.4,0-3.6-0.4c-0.9-0.3-1.2,1.1-0.3,1.4c1.3,0.4,2.6,0.6,3.9,0.4
			C607.5,174.7,607.5,173.2,606.6,173.3z"/>
	</g>
</g>
<g>
	<g>
		<path style="fill:#FFFFFF;" d="M611.7,174.9c-1.7,0.4-6,1.6-10.5,3.3c-0.3,0.1-0.5,0.5-0.3,0.8c0.5,0.9,3.1,2.2,4.4,2.8
			c2.7,1.1,6.8,0.6,7.1-6.3C612.5,175.1,612.1,174.8,611.7,174.9z"/>
	</g>
</g>
<g>
	<g>
		<path style="fill:#FF867A;" d="M621.1,166.3c0.1-1,0.1-2.1,0-3.1c-0.2-2-0.1-4.9,3-3.8c4.4,1.6,5,12.1,0.2,13.4
			C620.7,173.8,620.8,168.9,621.1,166.3z"/>
	</g>
</g>
<g>
	<g>
		<path style="fill:#AF5546;" d="M609.3,161.2c0,0,4.1-0.5,4.2-0.1c0.2,0.3-0.2,1.3-0.2,1.3s-4.7-0.1-5.2,0.3
			c-0.5,0.4-0.6-1.2,0-1.4C608.8,161,609.3,161.2,609.3,161.2z"/>
	</g>
</g>
<g>
	<g>
		<path style="fill:#AF5546;" d="M600.8,162.8c0,0-3.6,1.1-3.7,1.5c0,0.4,0.5,1.1,0.5,1.1s4-1.8,4.5-1.7c0.6,0.1,0.1-1.4-0.4-1.3
			C601.2,162.5,600.8,162.8,600.8,162.8z"/>
	</g>
</g>
<g>
	<g>
		<g>
			<path style="fill:#AFBDD7;" d="M674.9,205.5c-13.3,26.7,119.1,69.6,117.1,74.9c-4.2,11-16.1,104.2-26.6,132.2
				c-2.1,5.6,27.6,18.8,34.3,15.1c19-10.4,41.1-86.3,42.4-145.2c0.8-34-24.4-45.2-51.2-57.1C746.3,205.5,682,191.3,674.9,205.5z"/>
		</g>
	</g>
</g>
<g>
	<path style="fill:#66844D;" d="M713.5,487.5c-1.2,0-2.3-1-2.3-2.2c-0.6-18-11.2-27.6-11.3-27.7c-1-0.8-1-2.3-0.2-3.3
		c0.8-1,2.3-1.1,3.3-0.2c0.5,0.4,12.3,11,12.9,31C715.9,486.4,714.9,487.5,713.5,487.5C713.6,487.5,713.5,487.5,713.5,487.5z"/>
</g>
<path style="fill:#FF867A;" d="M773.3,412.1c0,0-22.5,9.2-25.5,12.8c-3,3.5-8.8,21.3-6.3,20.2c2.5-1.2,9-12.4,9-12.4
	s-4.2,16.1-1.5,17.4c2.7,1.3,4,0,4,0s1.3,2.9,4.1,1.8c2.8-1,10.5-14.9,10.5-14.9s-2.2,10.7-0.5,11.6c1.7,0.8,7.6-13.1,11.4-14.6
	c3.9-1.5,10-4.4,11.3-11.6C791.1,415.1,780.7,406.2,773.3,412.1z"/>
<path style="fill:#434A59;" d="M601.2,168.8c0.1,0.8-0.2,1.5-0.6,1.5c-0.5,0.1-0.9-0.5-1.1-1.3c-0.1-0.8,0.2-1.5,0.6-1.5
	C600.6,167.5,601,168,601.2,168.8z"/>
<path style="fill:#434A59;" d="M610.7,166.7c0.1,0.8-0.2,1.5-0.6,1.5c-0.5,0.1-0.9-0.5-1.1-1.3c-0.1-0.8,0.2-1.5,0.6-1.5
	C610.1,165.3,610.5,165.9,610.7,166.7z"/>
<path style="fill:#FF867A;" d="M433.6,368.7c0,0-34.1,8.8-40.7,13.1c-6.6,4.2-17.8,10.6-17,12.4s17-5.2,17-5.2s4.6,11.6,10.3,13.3
	c5.6,1.8,8.7-2.4,8.7-2.4s21.7-3,26.5-13.9C443.3,375.1,433.6,368.7,433.6,368.7z"/>
<g>
	<path style="fill:#919FB5;" d="M735.4,256.2c-0.2,0-0.4,0-0.6-0.1c-27.7-7.9-54.5-24.7-54.8-24.9c-1.1-0.7-1.4-2.1-0.7-3.2
		c0.7-1.1,2.1-1.4,3.2-0.7c0.3,0.2,26.5,16.6,53.6,24.4c1.2,0.4,2,1.6,1.6,2.9C737.3,255.5,736.4,256.2,735.4,256.2z"/>
</g>
<g>
	<path style="fill:#919FB5;" d="M803.5,291.8c-0.5,0-1-0.2-1.4-0.5l-11.6-9.1c-1-0.8-1.2-2.3-0.4-3.3c0.8-1,2.3-1.2,3.3-0.4
		l11.6,9.1c1,0.8,1.2,2.3,0.4,3.3C804.9,291.5,804.2,291.8,803.5,291.8z"/>
</g>
</svg>
