<svg id="Layer_1" data-name="Layer 1" xmlns="http://www.w3.org/2000/svg" xmlns:xlink="http://www.w3.org/1999/xlink" viewBox="0 0 1000 1000"><defs><style>.cls-1{fill:#e0e0e0;}.cls-2{filter:url(#AI_Shadow_1);}.cls-3{fill:#82bc68;}.cls-4{fill:#fff;}.cls-5{fill:#e04a4a;}.cls-6{fill:#404859;}.cls-7{fill:#0f7ab7;}.cls-8{fill:#4c3b38;}.cls-9{fill:#434a59;}.cls-10{fill:#c6c0ba;}.cls-11{fill:#e2ddd7;}.cls-12{fill:#f27872;}.cls-13{fill:#ff867a;}.cls-14{fill:#725252;}.cls-15{fill:#c66c67;}</style><filter id="AI_Shadow_1" name="AI_Shadow_1"><feGaussianBlur result="blur" stdDeviation="2" in="SourceAlpha"/><feOffset result="offsetBlurredAlpha" dx="4" dy="4" in="blur"/><feMerge><feMergeNode in="offsetBlurredAlpha"/><feMergeNode in="SourceGraphic"/></feMerge></filter></defs><circle class="cls-1" cx="499" cy="499" r="487"/><g class="cls-2"><rect class="cls-3" x="140.28" y="32" width="370.45" height="218.96" rx="76.27"/><polygon class="cls-3" points="358.13 208.06 452.68 300.37 427.46 208.06 358.13 208.06"/><rect class="cls-4" x="220.7" y="102.44" width="209.61" height="18.95" rx="9.16"/><rect class="cls-4" x="220.7" y="142.63" width="86.49" height="18.95" rx="9.16"/><rect class="cls-4" x="316.15" y="142.63" width="86.26" height="18.95" rx="9.16"/><circle class="cls-4" cx="420.84" cy="152.1" r="9.47" transform="translate(188.75 534.69) rotate(-78.63)"/></g><g class="cls-2"><path class="cls-5" d="M631,416.58s-2.51,33.41-46.31,29c-52.58-5.34-68.74-42.81-49.64-58.19s75.43-22.29,89.75-9.86S631,416.58,631,416.58Z"/><path class="cls-6" d="M655.82,958.24c6.36-2.79,7.17-8.46,9.88-13.83.19-.37,1.23-8.09,1.24-8.71,0-2.66,7.73-9.74,11.32-4.19,7.07,10.94,14.83-6.15,14.42-1.59-1.23,13.59,5,35.5,0,37-10.78,3.17-61.11,6.85-62.07,1.56C630,965.3,644.8,963.06,655.82,958.24Z"/><path class="cls-6" d="M764,958.24c6.36-2.79,7.17-8.46,9.88-13.83.19-.37,1.23-8.09,1.24-8.71,0-2.66,7.73-9.74,11.32-4.19,7.07,10.94,14.83-6.15,14.42-1.59-1.23,13.59,5,35.5,0,37-10.78,3.17-61.11,6.85-62.07,1.56C738.2,965.3,753,963.06,764,958.24Z"/><path class="cls-7" d="M778,459.54C765.32,431.45,668.63,395,643.13,389c-1.87,28.28-14.92,45.9-30.35,76.41-21.58,42.64,37.5,471.9,37.5,471.9s7.56,5.85,25.62,5.85c23.13,0,27.31-5.85,27.31-5.85L689.93,538.65l69.19,398.67s3.48,3.89,26.4,5.62c21,1.59,24.37-5.62,24.37-5.62S792.62,491.75,778,459.54Z"/><path class="cls-8" d="M784.55,497.23,622.79,501S662.24,523.9,728,529c25.36,2,45.19,3,60,3.62C786.85,519.38,785.7,507.47,784.55,497.23Z"/><path class="cls-5" d="M788,398.35c4.28-62,15.5-96.26,9.58-117.43-7.58-27.14-47.28-45.63-70-48.79-18.68-2.59-64.57-1-81.19,10.63-26.67,18.68-42.27,250-42.27,250s21.89,14.48,83,22.27c79.57,10.14,106.51,0,106.51,0S783,471.9,788,398.35Z"/><path class="cls-9" d="M789.37,488.31c-1.24-10.94-2.33-25.08-2.62-42.08l-68.84-30.82S747.92,472.65,789.37,488.31Z"/><path class="cls-10" d="M645.87,395.41h0l86.28-10.13-.34,3.43c-.24,2.57-85.23,12.56-85.23,12.56a12.88,12.88,0,0,1-2.56,0L465,384.07a6,6,0,0,1-5.41-6.56h0Z"/><polygon class="cls-11" points="732.14 385.28 645.87 395.41 459.59 377.5 545.86 367.36 732.14 385.28"/><path class="cls-10" d="M645.5,401.26,463.07,384.39a4.28,4.28,0,0,1-3.89-4.27L459,253.79a8.64,8.64,0,0,1,8.64-8.66l169,17.25a8.65,8.65,0,0,1,8.66,8.63Z"/><path class="cls-4" d="M546.05,322.3c.42,6.14-2.87,11.5-7.35,12s-8.45-4.15-8.87-10.29,2.87-11.5,7.35-12S545.63,316.16,546.05,322.3Z"/><path class="cls-8" d="M689.93,539.94a1.28,1.28,0,0,1-1.28-1.24c-.29-8.47-9.23-19.94-9.32-20.06a1.28,1.28,0,1,1,2-1.58c.39.49,9.55,12.24,9.86,21.55a1.28,1.28,0,0,1-1.24,1.32Z"/><path class="cls-8" d="M798.83,929.64h-.12a.52.52,0,0,1-.38-.62,62.83,62.83,0,0,0,0-22.33c-1.56-9.09-1-22.34-.44-34,.22-4.94.43-9.61.43-13.27,0-7.13-.79-17.6-1.49-26.83-.47-6.3-.92-12.24-1.05-16.24-.17-5.23-2.18-33.43-4.13-60.71-1.73-24.16-3.51-49.14-4.1-59.35-.26-4.47-.67-11.2-1.15-19.19-1.82-30.34-4.87-81.12-4.87-90.46,0-11.57-4.08-57.84-4.12-58.3a.51.51,0,1,1,1-.09c0,.46,4.12,46.78,4.12,58.39,0,9.31,3.05,60.07,4.88,90.4.48,8,.88,14.72,1.14,19.19.59,10.2,2.38,35.18,4.1,59.34,2,28.54,4,55.5,4.14,60.75.13,4,.57,9.91,1.05,16.19.69,9.25,1.48,19.74,1.48,26.91,0,3.68-.21,8.36-.43,13.31-.52,11.64-1.11,24.84.43,33.81a63.83,63.83,0,0,1,0,22.74A.51.51,0,0,1,798.83,929.64Z"/><path class="cls-8" d="M693,932.13a.51.51,0,0,1-.51-.51V901.84c0-.76,0-2.53,0-5.1.67-63.38-.41-101.39-3.2-113-4.86-20.08-9.26-112.24-9.52-120.18-.08-2.37-.55-7.62-1.14-14.27-1.8-20.19-4.8-54-2.66-69.45,2.81-20.33,3.79-51.33,3.8-51.64a.5.5,0,0,1,.52-.5.51.51,0,0,1,.5.53c0,.31-1,31.36-3.81,51.75-2.12,15.35.88,49.07,2.67,69.22.59,6.66,1.06,11.93,1.14,14.33.27,7.93,4.65,100,9.49,120,2.82,11.66,3.91,49.74,3.23,113.21,0,2.56-.05,4.33-.05,5.09v29.78A.51.51,0,0,1,693,932.13Z"/><path class="cls-12" d="M510.15,396.58c5.67,3.24,36.7,4,36.7,4s2.2-9.74-6-14.69c-4.08-2.46-12.44-2.73-12.44-2.73s-.31-1.21-7.11-1.82c-4.75-.43-5.68,3.34-5.81,5.64a8.7,8.7,0,0,0-4.88-6.6C504.89,377.28,504.47,393.35,510.15,396.58Z"/><path class="cls-5" d="M793.46,271.34s100.25,135,72.77,188.83c-29.55,57.94-177.75-42.83-169.4-65.51,1.93-5.24,23.58-30.11,23.58-30.11l95.1,50.29s-47.45-74.61-45.33-109.69C772,274.85,793.46,271.34,793.46,271.34Z"/><path class="cls-9" d="M846.49,439.79a1.84,1.84,0,0,1-1.65-1c-6.37-12.73-29.78-22.11-30-22.21a1.84,1.84,0,1,1,1.36-3.43c1,.4,24.95,10,31.95,24a1.86,1.86,0,0,1-1.65,2.68Z"/><path class="cls-9" d="M790.57,371.68a1.48,1.48,0,0,1-1.22-.63c-23.09-32.57-30.58-83.13-30.65-83.64a1.49,1.49,0,1,1,3-.42c.07.5,7.47,50.36,30.13,82.33a1.5,1.5,0,0,1-.35,2.09A1.47,1.47,0,0,1,790.57,371.68Z"/><path class="cls-13" d="M707.9,373.57S684.15,356.73,679.55,361s-16.76,13-14,14.92,10.81-5.65,10.81-5.65-9.61,11.67-8.77,13.58,3.25,1.07,3.25,1.07a6.68,6.68,0,0,0,1.79,4c1.58,1.37,11.74-5.93,11.74-5.93s21.66,21,29.52,6.66S707.9,373.57,707.9,373.57Z"/><path class="cls-14" d="M675.77,160.19c-11.07,6.49,3.21,23.44,3.86,26.79s16.76,23.32,22.31,22.68,9.1-14.34,9-16.06,3.39-16.72.25-19.22-13.84-7.08-13.84-7.08,4.9-1.08,3.41-2.39C694.06,159,684.27,155.2,675.77,160.19Z"/><path class="cls-13" d="M703,192.2l13.36,38.35c.67,3.84-5.76,21.79-22.34,18.1-2.25-.5-4.09-11.14-3.07-15.41l2.72-26.51Z"/><path class="cls-13" d="M698,183.07l6.6,14.93c2.15,5.51-2.33,13.69-13.12,15.5-11.46,1.94-13.95-3.36-14.81-9.68-1.11-8.19.25-22.16,1.18-26.33,1.51-6.7,5.38-1.68,11,1C691.21,179.56,696.31,180.08,698,183.07Z"/><path class="cls-4" d="M677.73,195.22a39.26,39.26,0,0,0,12.72.35s-1.26,3.92-4.14,5.58S679.68,200.9,677.73,195.22Z"/><path class="cls-13" d="M701.31,185.19c.35-1.85,1.3-4.52,3.79-2.65,3.62,2.71,2,11.72-2.72,11.61C698.87,194.07,701.13,186.16,701.31,185.19Z"/><path class="cls-15" d="M683.13,191a6.92,6.92,0,0,1-3.15-1.21c-.73-.51-1.38.71-.65,1.21a7.86,7.86,0,0,0,3.48,1.34C683.69,192.41,684,191.07,683.13,191Z"/><path class="cls-9" d="M687.79,184.49a.68.68,0,0,0-.81.42,2.39,2.39,0,0,0-.21,1.32.75.75,0,0,0,1.06.57C688.47,186.51,688.75,184.61,687.79,184.49Z"/><path class="cls-9" d="M679.26,185.1a.67.67,0,0,0-.81.41,2.5,2.5,0,0,0-.22,1.32.75.75,0,0,0,1.07.57C679.94,187.11,680.21,185.22,679.26,185.1Z"/><path class="cls-14" d="M680.91,180.75a10.86,10.86,0,0,0-2.87.76c-.85.35-1.53-1.48-.68-1.83a12.42,12.42,0,0,1,3.25-.83C681.54,178.75,681.83,180.64,680.91,180.75Z"/><path class="cls-14" d="M687.06,179c1.18.13,2.38.2,3.56.39a1,1,0,0,1-.28,1.93c-1.18-.19-2.38-.25-3.56-.39A1,1,0,0,1,687.06,179Z"/><path class="cls-14" d="M695.87,180.15a11.39,11.39,0,0,1,1.06,4.7c.12,3-.5,5.37,1.93,5.42s1.61-2.68,2.45-5.08-1.27-5.44-3.61-5.84S695.87,180.15,695.87,180.15Z"/><path class="cls-15" d="M704.24,204.93c-.54-1.72-7.63,5.09-15.54,5.94-5.23.57-8.55-.39-10.21-1.11,1.88,3.18,5.54,5,13,3.74.5-.08,1-.18,1.46-.29l-.84,8.13C698.63,219.32,704.75,206.57,704.24,204.93Z"/><path class="cls-9" d="M608,445.24h-.15a1.49,1.49,0,0,1-1.34-1.63l4-40.4a1.49,1.49,0,1,1,3,.3l-4,40.39A1.5,1.5,0,0,1,608,445.24Z"/></g></svg>