<svg xmlns="http://www.w3.org/2000/svg" xmlns:xlink="http://www.w3.org/1999/xlink" viewBox="0 0 1000 1000"><defs><style>.cls-1{isolation:isolate;}.cls-2{fill:#e0e0e0;}.cls-3{fill:#404859;}.cls-4{filter:url(#AI_Shadow_1);}.cls-5{fill:#1b3f63;}.cls-6{fill:#e7f2f2;}.cls-11,.cls-7{fill:#fff;}.cls-8{fill:#434a59;}.cls-9{fill:#edf1f4;}.cls-10{fill:#e04a4a;}.cls-11{font-size:40.44px;font-family:Poppins-Bold, Poppins;font-weight:700;}.cls-12{fill:#8a9998;mix-blend-mode:multiply;}.cls-13{fill:#919fb5;}.cls-14{fill:#82bc3d;}.cls-15{fill:#7fa062;}.cls-16{fill:#afbdd7;}.cls-17{fill:#66844d;}.cls-18{fill:#ff867a;}.cls-19{fill:#af5546;}.cls-20{fill:#c66c67;}</style><filter id="AI_Shadow_1" name="AI_Shadow_1"><feGaussianBlur result="blur" stdDeviation="2" in="SourceAlpha"/><feOffset result="offsetBlurredAlpha" dx="4" dy="4" in="blur"/><feMerge><feMergeNode in="offsetBlurredAlpha"/><feMergeNode in="SourceGraphic"/></feMerge></filter></defs><g class="cls-1"><g id="Layer_1" data-name="Layer 1"><circle class="cls-2" cx="499" cy="499" r="487"/><path class="cls-3" d="M784.13,896.47c5.14-2.23,5.81-6.79,8-11.11.15-.29,1-6.51,1-7,0-2.15,6.27-7.82,9.14-3.34,5.65,8.84,12.86-4.64,12.51-1-1,10.94,3,28.36-1.08,29.54-8.69,2.51-49.24,5.28-50,1C763.3,902.05,775.24,900.31,784.13,896.47Z"/><path class="cls-3" d="M655.29,896.47c5.14-2.23,5.82-6.79,8-11.11.15-.29,1-6.51,1-7,0-2.15,6.27-7.82,9.13-3.34,5.66,8.84,12.86-4.64,12.51-1-1,10.94,3,28.36-1.07,29.54-8.7,2.51-49.25,5.28-50,1C634.47,902.05,646.41,900.31,655.29,896.47Z"/><g class="cls-4"><path class="cls-5" d="M162.72,78.43h14.46c31,0,380.13,25.17,381.42,56.22L588,842.37a53.49,53.49,0,0,1-53.88,56.22H196.76c-31,0-57.26-25.17-58.55-56.22L108.83,134.65A53.5,53.5,0,0,1,162.72,78.43Z"/><path class="cls-6" d="M182.46,78.43H519.78c31.05,0,57.27,25.17,58.56,56.22l29.37,707.72a53.5,53.5,0,0,1-53.89,56.22H216.5c-31.05,0-57.27-25.17-58.56-56.22L128.57,134.65A53.5,53.5,0,0,1,182.46,78.43Z"/><path class="cls-7" d="M184.67,86.36H517.56c27.55,0,50.81,22.33,52,49.89l29.25,704.86a47.77,47.77,0,0,1-48.12,50.21H222c-29.73,0-54.83-24.1-56.07-53.83l-29.1-701.24A47.46,47.46,0,0,1,184.67,86.36Z"/><path class="cls-8" d="M303.8,113.07H404.32a3.36,3.36,0,0,0,3.38-3.52l0-.93A3.71,3.71,0,0,0,404,105.1H303.47a3.36,3.36,0,0,0-3.38,3.52l0,.93A3.71,3.71,0,0,0,303.8,113.07Z"/><path class="cls-8" d="M418.2,109.09a4.19,4.19,0,0,0,4.16,4,3.79,3.79,0,0,0,3.82-4,4.19,4.19,0,0,0-4.16-4A3.79,3.79,0,0,0,418.2,109.09Z"/><path class="cls-8" d="M284.08,109.09a4.19,4.19,0,0,0,4.15,4,3.79,3.79,0,0,0,3.83-4,4.2,4.2,0,0,0-4.16-4A3.79,3.79,0,0,0,284.08,109.09Z"/><path class="cls-9" d="M191.67,137.36l321.89,4c27.55,0,50.81,22.33,52,49.89l28.25,646.86a47.77,47.77,0,0,1-48.12,50.21L227,887c-29.73,0-53.8-26.78-55-56.51l-28.1-643.24A47.46,47.46,0,0,1,191.67,137.36Z"/><path class="cls-10" d="M526.18,380.44l-314.8,3a42.44,42.44,0,0,0-42.15,44.38l1.31,17.75c1,24.19,21.62,43.78,45.81,43.55l314.8-3a42.46,42.46,0,0,0,42.16-44.39L572,424C571,399.8,550.37,380.21,526.18,380.44Z"/><text class="cls-11" transform="matrix(1.07, -0.01, 0.09, 1, 211, 450.79)">KONTAKT MEG</text><path class="cls-7" d="M128.72,394.92h.7a2.54,2.54,0,0,0,2.55-2.66l-5.3-127.67a2.81,2.81,0,0,0-2.77-2.67h-.7a2.54,2.54,0,0,0-2.55,2.67L126,392.26A2.8,2.8,0,0,0,128.72,394.92Z"/><path class="cls-12" d="M588,374.18c-21.57,5.76-61.73,14.84-87.37,19.63C464.74,400.52,449,407.68,449,407.68s23.15,19.84,64.76,23.46c27.87,2.42,58.41-8.78,76.17-17.88Z"/><path class="cls-13" d="M613.6,221.78c-28.55-8.55-42.37,112.9-53.11,118.94-10.24,5.76-103.08,18.92-132.66,21.55-6,.53-3,32.32,4.36,38.62,28.41,24.17,63.63,24.2,145.49-1,35.92-11.07,46.07-44.16,52.13-72.82C640.25,277.7,628.81,226.34,613.6,221.78Z"/><path class="cls-14" d="M644.53,455.64c1.18-26.29,2.36-69.9,3.39-73.11,16.2-50.23,121-11.31,132.26,2.44,17.77,21,16.72,47.9,20.67,93,1.77,20.28,21.6,402.91,21.6,402.91a84.58,84.58,0,0,1-29.58,2.93,135.6,135.6,0,0,1-18.77-2.93c-35.83-138.74-60.58-395.72-60.58-395.72-2.24,61-6,398.91-6,398.91s-24.36.51-44.39,2.12c-14.79,1.2-18.94-5.66-18.94-5.66S641.75,643.73,644.53,455.64Z"/><path class="cls-15" d="M787.81,396.43,659.73,438.9s43.28,10.87,91.63,5.15c21-2.49,36-4.62,46.26-6.23C796,421.16,793.65,407.84,787.81,396.43Z"/><path class="cls-16" d="M637.89,438.06c-6.17-97.32-57.27-179.93-40-207.84,30-48.69,91.41-37.13,115.36-9,31.56,37,89.94,163.71,82.85,183.74-8.4,12.38-21.47,21.95-92.4,32.45C690.23,439.35,652.48,439.33,637.89,438.06Z"/><path class="cls-16" d="M674.87,205.49c-13.29,26.68,119.06,69.61,117.06,74.9-4.17,11-16.11,104.19-26.56,132.21-2.1,5.65,27.62,18.76,34.27,15.1,19-10.4,41.1-86.26,42.44-145.2.78-34-24.4-45.24-51.16-57.15C746.29,205.49,682,191.28,674.87,205.49Z"/><path class="cls-17" d="M713.52,487.5a2.32,2.32,0,0,1-2.31-2.24c-.57-18-11.22-27.61-11.32-27.71a2.31,2.31,0,0,1,3.05-3.47c.5.44,12.26,10.95,12.9,31a2.31,2.31,0,0,1-2.24,2.39Z"/><path class="cls-18" d="M773.3,412.1s-22.48,9.23-25.5,12.75S739,446.19,741.46,445s9-12.43,9-12.43S746.29,448.68,749,450s4,0,4,0,1.28,2.85,4.08,1.85,10.52-14.94,10.52-14.94-2.18,10.74-.51,11.58,7.55-13.09,11.41-14.6,10-4.39,11.27-11.59S780.68,406.23,773.3,412.1Z"/><path class="cls-19" d="M594.37,160.78s-7.55-3.93-2.08-10.62c16-19.6,31.19-8.46,36.34,6.5,3.44,10-1.73,20.22-1.73,20.22S599.18,172,594.37,160.78Z"/><path class="cls-18" d="M622.79,168.22,644.06,200c2.59,4.95-6.72,16.3-14.11,17.61-2,.36-5.24,1.36-5.69-2.89l-9.14-33.8Z"/><path class="cls-19" d="M612.55,141.48s-2.3-6.28-10.84-5.61-7.16,5.07-10.9,13.58,2.51,16.1,13.62,18.45C612.2,169.53,622.71,150.63,612.55,141.48Z"/><path class="cls-18" d="M616.49,156.28l7.82,11.1c3,5.16,2.78,11.67-1.51,15.84-4,3.85-6.58,6.27-12.44,7.28-4.89.85-8.66-2.95-10.51-9.12A60.26,60.26,0,0,1,597.78,161c.3-4.61,2.8-8,6.13-9.26C607.69,150.26,608,156,616.49,156.28Z"/><path class="cls-20" d="M606.55,173.34A7.27,7.27,0,0,1,603,173c-.88-.31-1.2,1.11-.33,1.42a8.33,8.33,0,0,0,3.93.41C607.52,174.67,607.48,173.21,606.55,173.34Z"/><path class="cls-7" d="M611.73,174.89a90.25,90.25,0,0,0-10.48,3.29.59.59,0,0,0-.32.82c.48.91,3.06,2.22,4.44,2.8,2.71,1.13,6.82.63,7.09-6.26A.61.61,0,0,0,611.73,174.89Z"/><path class="cls-18" d="M621.06,166.3a14.51,14.51,0,0,0,0-3.09c-.2-2,0-4.9,3-3.78,4.44,1.63,5,12.1.21,13.4C620.7,173.79,620.78,168.89,621.06,166.3Z"/><path class="cls-19" d="M609.31,161.21s4.09-.48,4.25-.14-.15,1.3-.15,1.3-4.69-.07-5.23.3-.59-1.24,0-1.44A1.85,1.85,0,0,1,609.31,161.21Z"/><path class="cls-19" d="M600.84,162.85s-3.63,1.08-3.66,1.45.51,1.14.51,1.14,4-1.81,4.54-1.67.14-1.37-.44-1.32A1.7,1.7,0,0,0,600.84,162.85Z"/><path class="cls-8" d="M601.16,168.8c.12.77-.17,1.46-.64,1.53s-.94-.5-1.06-1.28.17-1.45.64-1.52S601.05,168,601.16,168.8Z"/><path class="cls-8" d="M610.66,166.69c.11.78-.18,1.46-.65,1.53s-.94-.5-1.06-1.27.18-1.46.65-1.53S610.54,165.92,610.66,166.69Z"/><path class="cls-18" d="M433.63,368.68s-34.12,8.85-40.7,13.08-17.79,10.58-17,12.42S393,389,393,389s4.65,11.55,10.29,13.31a7.91,7.91,0,0,0,8.72-2.41s21.74-3,26.52-13.92S433.63,368.68,433.63,368.68Z"/><path class="cls-13" d="M735.37,256.18a2.43,2.43,0,0,1-.65-.09c-27.7-7.92-54.51-24.74-54.78-24.91a2.33,2.33,0,1,1,2.49-3.94c.26.17,26.53,16.63,53.58,24.36a2.34,2.34,0,0,1-.64,4.58Z"/><path class="cls-13" d="M803.5,291.78a2.27,2.27,0,0,1-1.43-.5l-11.58-9.06a2.33,2.33,0,0,1,2.87-3.67l11.58,9.06a2.33,2.33,0,0,1-1.44,4.17Z"/></g></g></g></svg>