<?xml version="1.0" encoding="utf-8"?>

<svg version="1.1" xmlns="http://www.w3.org/2000/svg" xmlns:xlink="http://www.w3.org/1999/xlink" x="0px" y="0px"
	 viewBox="0 0 1000 1000" style="enable-background:new 0 0 1000 1000;" xml:space="preserve">
<g id="Layer_1">
	<circle style="fill:#0F7AB7;" cx="499" cy="499" r="487"/>
	<g>
		<g>
			<g>
				<path style="fill:#1B3F63;" d="M477.7,90.4H488c22.2,0,271.6,18,272.5,40.2l21,505.6c0.9,22.2-16.3,40.2-38.5,40.2H502
					c-22.2,0-40.9-18-41.8-40.2l-21-505.6C438.3,108.4,455.5,90.4,477.7,90.4z"/>
				<path style="fill:#E7F2F2;" d="M491.8,90.4h241c22.2,0,40.9,18,41.8,40.2l21,505.6c0.9,22.2-16.3,40.2-38.5,40.2h-241
					c-22.2,0-40.9-18-41.8-40.2l-21-505.6C452.4,108.4,469.6,90.4,491.8,90.4z"/>
				<g>
					<path style="fill:#FFFFFF;" d="M493.4,96h237.8c19.7,0,36.3,16,37.1,35.6l20.9,503.6c0.8,19.8-14.6,35.9-34.4,35.9H520.1
						c-21.2,0-39.2-17.2-40.1-38.5l-20.8-501C458.4,112,473.7,96,493.4,96z"/>
				</g>
				<path style="fill:#434A59;" d="M578.5,115.1h71.8c1.4,0,2.5-1.1,2.4-2.5l0-0.7c-0.1-1.4-1.2-2.5-2.6-2.5h-71.8
					c-1.4,0-2.5,1.1-2.4,2.5l0,0.7C575.9,114,577.1,115.1,578.5,115.1z"/>
				<path style="fill:#434A59;" d="M660.2,112.3c0.1,1.6,1.4,2.8,3,2.8c1.6,0,2.8-1.3,2.7-2.8c-0.1-1.6-1.4-2.9-3-2.9
					C661.4,109.4,660.1,110.7,660.2,112.3z"/>
				<path style="fill:#434A59;" d="M564.4,112.3c0.1,1.6,1.4,2.8,3,2.8c1.6,0,2.8-1.3,2.7-2.8c-0.1-1.6-1.4-2.9-3-2.9
					C565.5,109.4,564.3,110.7,564.4,112.3z"/>
				<g>
					<path style="fill:#EDF1F4;" d="M498.4,132.5l230,2.9c19.7,0,36.3,16,37.1,35.6l20.2,462.1c0.8,19.8-14.6,35.9-34.4,35.9
						L523.6,668c-21.2,0-38.4-19.1-39.3-40.4l-20.1-459.5C463.4,148.4,478.7,132.5,498.4,132.5z"/>
				</g>
			</g>
			<path style="fill:#FFFFFF;" d="M453.4,316.5h0.5c1,0,1.9-0.9,1.8-1.9l-3.8-91.2c0-1-0.9-1.9-2-1.9h-0.5c-1,0-1.9,0.9-1.8,1.9
				l3.8,91.2C451.5,315.6,452.3,316.5,453.4,316.5z"/>
		</g>
		<g>
			<path style="fill:#AFA0A1;" d="M732.2,168.6l-235-0.7c-27.3,0-26.3,23.8-25.1,51l0.1,8.2c1.1,27.3,7.2,47.2,34.4,47.2l226.3-1.4
				c27.3,0,31.8-20.9,30.6-48.2l0.1-6.1C762.5,191.4,759.5,168.6,732.2,168.6z"/>
		</g>
		<g>
			<path style="fill:#82BC3D;" d="M737.7,280.4l-234.8,1.1c-27.3,0-26.3,23.8-25.1,51l0.1,8.2c1.1,27.3,7.2,47.2,34.4,47.2
				l226.1-3.3c27.3,0,31.8-20.9,30.6-48.2l0.1-6.1C768,303.1,765,280.4,737.7,280.4z"/>
		</g>
		<g>
			<g>
				<g>
					<path style="fill:#FFFFFF;" d="M724.9,210.4l-216.1,1.2c-3.9,0-7.1-3.1-7.1-7v0c0-3.9,3.1-7.1,7-7.1l216.1-1.2
						c3.9,0,7.1,3.1,7.1,7v0C731.9,207.2,728.8,210.4,724.9,210.4z"/>
				</g>
			</g>
			<g>
				<g>
					<path style="fill:#FFFFFF;" d="M589.8,241.1l-80.9,0.4c-3.9,0-7.1-3.1-7.1-7v0c0-3.9,3.1-7.1,7-7.1l80.9-0.4
						c3.9,0,7.1,3.1,7.1,7v0C596.9,237.9,593.7,241.1,589.8,241.1z"/>
				</g>
			</g>
			<g>
				<g>
					<path style="fill:#FFFFFF;" d="M694.4,240.5l-80.6,0.4c-3.9,0-7.1-3.1-7.1-7v0c0-3.9,3.1-7.1,7-7.1l80.6-0.4
						c3.9,0,7.1,3.1,7.1,7v0C701.4,237.3,698.3,240.5,694.4,240.5z"/>
				</g>
			</g>
			<g>
				
					<ellipse transform="matrix(1 -5.423553e-03 5.423553e-03 1 -1.2548 3.9174)" style="fill:#FFFFFF;" cx="721.7" cy="233.3" rx="10.4" ry="7.1"/>
			</g>
		</g>
		<g>
			<path style="fill:#AFA0A1;" d="M741.3,394.1l-235,1.9c-27.3,0.3-26,24.1-24.6,51.3l0.2,8.2c1.4,27.3,7.7,47.1,35,46.8l226.3-3.9
				c27.3-0.3,31.5-21.2,30.1-48.5l0-6.1C771.9,416.5,768.6,393.8,741.3,394.1z"/>
		</g>
		<g>
			<g>
				<g>
					<path style="fill:#FFFFFF;" d="M734.4,436l-216,3.6c-3.9,0.1-7.1-3.1-7.2-6.9v0c-0.1-3.9,3.1-7.1,6.9-7.2l216-3.6
						c3.9-0.1,7.1,3.1,7.2,6.9v0C741.4,432.7,738.3,435.9,734.4,436z"/>
				</g>
			</g>
			<g>
				<g>
					<path style="fill:#FFFFFF;" d="M599.7,468.1l-80.9,1.3c-3.9,0.1-7.1-3.1-7.2-6.9v0c-0.1-3.9,3.1-7.1,6.9-7.2l80.9-1.3
						c3.9-0.1,7.1,3.1,7.2,6.9v0C606.8,464.8,603.6,468.1,599.7,468.1z"/>
				</g>
			</g>
			<g>
				<g>
					<path style="fill:#FFFFFF;" d="M704.3,466.4l-80.6,1.3c-3.9,0.1-7.1-3.1-7.2-6.9l0,0c-0.1-3.9,3.1-7.1,6.9-7.2l80.6-1.3
						c3.9-0.1,7.1,3.1,7.2,6.9l0,0C711.3,463.1,708.2,466.3,704.3,466.4z"/>
				</g>
			</g>
			<g>
				
					<ellipse transform="matrix(0.9999 -1.643276e-02 1.643276e-02 0.9999 -7.4422 12.0821)" style="fill:#FFFFFF;" cx="731.5" cy="458.9" rx="10.4" ry="7.1"/>
			</g>
		</g>
		<g>
			<path style="fill:#AFA0A1;" d="M747.2,505.8l-235,4.5c-27.3,0.6-25.7,24.3-24,51.6l0.3,8.2c1.7,27.2,8.2,47,35.5,46.4l226.2-6.4
				c27.3-0.6,31.3-21.6,29.6-48.8l-0.1-6.1C778,527.9,774.4,505.2,747.2,505.8z"/>
		</g>
		<g>
			<g>
				<g>
					<path style="fill:#FFFFFF;" d="M740.8,547.7l-216,5.9c-3.9,0.1-7.1-3-7.3-6.9l0,0c-0.1-3.9,3-7.1,6.9-7.3l216-5.9
						c3.9-0.1,7.1,3,7.3,6.9v0C747.7,544.4,744.6,547.6,740.8,547.7z"/>
				</g>
			</g>
			<g>
				<g>
					<path style="fill:#FFFFFF;" d="M606.4,581.4l-80.8,2.2c-3.9,0.1-7.1-3-7.3-6.9l0,0c-0.1-3.9,3-7.1,6.9-7.3l80.8-2.2
						c3.9-0.1,7.1,3,7.3,6.9v0C613.4,578,610.3,581.3,606.4,581.4z"/>
				</g>
			</g>
			<g>
				<g>
					<path style="fill:#FFFFFF;" d="M710.9,578.5l-80.6,2.2c-3.9,0.1-7.1-3-7.3-6.9l0,0c-0.1-3.9,3-7.1,6.9-7.3l80.6-2.2
						c3.9-0.1,7.1,3,7.3,6.9l0,0C717.9,575.1,714.8,578.4,710.9,578.5z"/>
				</g>
			</g>
			<g>
				
					<ellipse transform="matrix(0.9996 -2.751451e-02 2.751451e-02 0.9996 -15.4232 20.5228)" style="fill:#FFFFFF;" cx="738" cy="570.7" rx="10.4" ry="7.1"/>
			</g>
		</g>
		<g>
			<g>
				<g>
					<path style="fill:#FFFFFF;" d="M728.9,323.4l-216.1,1.2c-3.9,0-7.1-3.1-7.1-7l0,0c0-3.9,3.1-7.1,7-7.1l216.1-1.2
						c3.9,0,7.1,3.1,7.1,7v0C736,320.2,732.8,323.3,728.9,323.4z"/>
				</g>
			</g>
			<g>
				<g>
					<path style="fill:#FFFFFF;" d="M593.9,354l-80.9,0.4c-3.9,0-7.1-3.1-7.1-7v0c0-3.9,3.1-7.1,7-7.1l80.9-0.4c3.9,0,7.1,3.1,7.1,7
						v0C600.9,350.8,597.8,354,593.9,354z"/>
				</g>
			</g>
			<g>
				<g>
					<path style="fill:#FFFFFF;" d="M698.4,353.5l-80.6,0.4c-3.9,0-7.1-3.1-7.1-7l0,0c0-3.9,3.1-7.1,7-7.1l80.6-0.4
						c3.9,0,7.1,3.1,7.1,7v0C705.5,350.3,702.3,353.5,698.4,353.5z"/>
				</g>
			</g>
			<g>
				
					<ellipse transform="matrix(1 -5.423553e-03 5.423553e-03 1 -1.8674 3.9409)" style="fill:#FFFFFF;" cx="725.7" cy="346.3" rx="10.4" ry="7.1"/>
			</g>
		</g>
	</g>
</g>
<g id="Layer_2">
	<g>
		<g>
			<g>
				<path style="fill:#434A59;" d="M619.5,277c-3.6,0-6.5-3.1-6.5-6.8v-39.4c0-3.8,2.9-6.8,6.5-6.8c3.6,0,6.5,3.1,6.5,6.8v39.4
					C626,273.9,623.1,277,619.5,277z"/>
			</g>
			<g>
				<path style="fill:#434A59;" d="M706.9,347.5h-37.7c-3.6,0-6.5-3.1-6.5-6.8c0-3.8,2.9-6.8,6.5-6.8h37.7c3.6,0,6.5,3.1,6.5,6.8
					C713.4,344.5,710.5,347.5,706.9,347.5z"/>
			</g>
			<g>
				<path style="fill:#434A59;" d="M667.5,295c-2,0-3.9-0.9-5.2-2.7c-2.2-3-1.6-7.3,1.2-9.6l29.9-24c2.9-2.3,6.9-1.7,9.1,1.3
					c2.2,3,1.6,7.3-1.2,9.6l-29.9,24C670.2,294.5,668.8,295,667.5,295z"/>
			</g>
		</g>
		<g>
			<path style="fill:#F27C79;" d="M200.2,579.4c7.2-16,63.3,24.6,63.3,24.6s38-50.2,47.3-44.7c10.8,6.4-6.2,52.3-33.8,74.6
				C250.7,655.1,193,595.5,200.2,579.4z"/>
			<g>
				<path style="fill:#919FB5;" d="M200.2,579.4c-4.9,10.9,19.9,41.7,44.6,53.9c7.1-9.2,10.5-25.6,11.9-33.9
					C241.6,589.1,205.8,566.8,200.2,579.4z"/>
			</g>
			<g>
				<path style="fill:#F27C79;" d="M502.1,621.4c-6.8,6.2-12.5,10.7-14.9,9.5c-6.7-3.5-35.8-56-42.1-51c-6.3,5,8.9,85.7,40.8,83.6
					c12.9-0.8,24.8-8.2,34.4-17.3C509.9,638.8,504.3,626.9,502.1,621.4z"/>
				<path style="fill:#7FA062;" d="M544.1,610.7c0.6-8.6-2.4-15.6-7.3-16.4c-6.5-1.1-22.4,15.8-34.7,27.1
					c2.2,5.5,7.8,17.4,18.2,24.9C534.5,632.9,543.8,615.9,544.1,610.7z"/>
			</g>
			<g>
				<polygon style="fill:#FFFFFF;" points="594.9,367.9 451.9,621.4 419.5,535.6 291.4,606.6 261.2,551.4 386.8,477.5 303.3,425.4 
									"/>
				<path style="fill:#1B3F63;" d="M594.9,367.9l-143,253.6l-32.4-85.8l-128.1,71l-30.2-55.2l125.6-73.9l-83.5-52.1L594.9,367.9
					L594.9,367.9z M604.4,351.1c-3.8-2.4-8.4-3.3-13-2.4l-291.6,57.6c-7.6,1.5-13.5,7.8-14.9,15.7c-1.3,8,2.1,16,8.8,20.1l55.9,34.9
					l-97.6,57.4c-4.3,2.5-7.5,6.8-8.8,11.8c-1.3,5-0.7,10.3,1.8,14.8l30.2,55.2c1.6,3,3.9,5.4,6.6,7c5.4,3.4,12.3,3.8,18.2,0.5
					L409.8,563l24.8,65.6c1.5,4.1,4.3,7.4,7.8,9.6c2.4,1.5,5.2,2.4,8.1,2.7c7.1,0.6,13.9-3.1,17.5-9.5l143-253.6
					c3.7-6.6,3.4-14.8-0.8-21.1C608.6,354.4,606.6,352.5,604.4,351.1L604.4,351.1z"/>
			</g>
			<g>
				<path style="fill:#434A59;" d="M604.9,941.5c-2.5,0.6-3.6,2.9-3.8,3.9c-0.2,1.2-3.1,0.7-5-0.3c-2-1-2.5-2.7-4.5-4.9
					c-1.2-1.4-2.3-1.8-3-1.9c-0.2,1.1-0.4,2.1-0.6,2.7c-1,2.3-0.3,6.2,1.6,6.7c1.9,0.5,18.7,1.7,22.1-0.3
					C613.7,946.1,609.1,943.8,604.9,941.5z"/>
				<path style="fill:#FF867A;" d="M591.6,940.1c1.9,2.2,2.5,3.9,4.5,4.9c2,1,4.8,1.5,5,0.3c0.2-1,1.3-3.3,3.8-3.9
					c-2.8-1.5-5.4-3-5.8-4.1c-1.2-2.9-1.4-7.2-2.6-8c-1.2-0.8-7.2-0.4-7.3,1.8c0,0-0.1,4-0.6,7C589.2,938.3,590.4,938.8,591.6,940.1
					z"/>
			</g>
			<g>
				<path style="fill:#434A59;" d="M502.8,941.4c2.5,0.4,3.9,2.6,4.1,3.5c0.3,1.1,3.1,0.4,5-0.8c1.9-1.2,2.3-3,4-5.3
					c1.1-1.5,2.2-2,2.9-2.2c0.3,1.1,0.6,2,0.9,2.6c1.2,2.2,0.8,6.1-1,6.8c-1.9,0.7-18.5,3.5-22.1,1.8
					C494.4,946.9,498.8,944.1,502.8,941.4z"/>
				<path style="fill:#FF867A;" d="M516,938.8c-1.7,2.4-2.1,4.1-4,5.3c-1.9,1.2-4.7,2-5,0.8c-0.2-0.9-1.6-3.1-4.1-3.5
					c2.6-1.8,5.1-3.5,5.4-4.7c0.9-3,0.8-7.3,1.9-8.2c1.1-0.9,7.1-1.1,7.4,1.1c0,0,0.5,4,1.2,7C518.2,936.8,517.1,937.4,516,938.8z"
					/>
			</g>
			<g>
				<g>
					<path style="fill:#E04A4A;" d="M564.3,685.9c-4.9-18.7-51.1-35.1-57.9-8.4c-2.1,8.2-10.4,14.5-13.1,42.5
						c-4.8,49.6,8.6,207.2,12.7,210.2s19.1,6.1,20.1,0.9c1.3-6.6,5.3-173.5,4.3-195.2c1.2,6.8,48.9,192,52.1,196.2
						c3.2,4.2,14.4,3,19.5-0.5c1.5-1-26-168.6-26-168.6S569.3,704.8,564.3,685.9z"/>
				</g>
			</g>
			<path style="fill:#BC3F3F;" d="M520.7,741.7c-14.2-1.8-23.3-4.5-28.2-6.3c0.1-4.8,0.3-9.2,0.7-13.1c3.8,1.1,12.7,3.4,27.8,6.3
				c20.9,4.1,47.3,8.6,47.3,8.6s-17.2,5.2-36.4,5.1c-0.9-3.5-1.4-5.8-1.5-6.4c0.1,1.5,0.1,3.6,0.1,6.4
				C527.2,742.3,523.9,742.1,520.7,741.7z"/>
			<g>
				<g>
					<path style="fill:#82BC3D;" d="M578.7,734.3c-4.1-23.4-9.2-52.7-11.2-77.4c-1.8-21.1,2.2-40,0.4-46.7
						c-2.9-10.9-9.5-16.5-23-17.9c-14.6-1.5-18.7,6.9-24.9,14.8c-4.8,6.1-7.8,24.4-15.4,51c-1.9,6.7-12,41.1-14.9,61.9
						C486.3,743.8,579.6,739.7,578.7,734.3z"/>
				</g>
			</g>
			<path style="fill:#434A59;" d="M559.7,564.4c-1.8-1.7-4.1-2.6-6.5-2.8c-0.8,0-4.8-1.2-6.7,2.3c-1.9,3.5,1.2,11.4,1.6,12.7
				c0.4,1.4,1.6,7.9,3.4,9.2c1.8,1.2,2.9-1.6,5.6-3.7C559.6,580,567,571.2,559.7,564.4z"/>
			<g>
				<path style="fill:#FF867A;" d="M553.6,580.9l1.5,14.2c0.1,2.3-8.2,6.6-11.8,3.8c-1.1-0.8,2.6-6.5,2.6-6.5l2.8-10.5L553.6,580.9z
					"/>
			</g>
			<g>
				<path style="fill:#C66C67;" d="M546.9,589l1.4-5.4l4-0.3C552.3,583.3,551.3,588.8,546.9,589z"/>
			</g>
			<g>
				<path style="fill:#FF867A;" d="M554.4,572l1.4,4.5c0.3,4.4-3.5,8.2-7.7,8c-5.2-0.2-7.6-1.6-7-6.6c0.4-2.9,3.5-7.9,4.8-9.9
					c1.5-2.2,3.7-3.1,5.6-2.5C553.3,566.2,550.7,568.3,554.4,572z"/>
			</g>
			<g>
				<path style="fill:#C66C67;" d="M545.5,583.1c1.8,0.3,6.8,0.3,6.8,0.3c-0.5,0.3-1,0.8-1.6,1c-0.8,0.3-1.8,0.3-2.7,0.2
					c-4-0.1-6.4-1-7-3.7C542.2,581.3,544.2,582.9,545.5,583.1z"/>
			</g>
			<g>
				<g>
					<path style="fill:#C66C67;" d="M546.6,575c-0.5-0.3-0.9-0.8-1.3-1.3c-0.2-0.4-0.8,0-0.6,0.5c0.3,0.6,0.8,1.1,1.4,1.5
						C546.5,575.9,547,575.3,546.6,575z"/>
				</g>
				<g>
					<path style="fill:#434A59;" d="M549.8,572.4c-0.1,0-0.3-0.2-0.5,0c-0.2,0.2-0.3,0.4-0.4,0.7c-0.1,0.3,0.2,0.6,0.4,0.5
						C549.8,573.7,550.3,572.7,549.8,572.4z"/>
				</g>
				<g>
					<path style="fill:#434A59;" d="M545.3,570.8c-0.1,0-0.3-0.2-0.5,0c-0.2,0.2-0.3,0.4-0.4,0.7c-0.1,0.3,0.2,0.6,0.4,0.5
						C545.3,572,545.8,571.1,545.3,570.8z"/>
				</g>
			</g>
			<g>
				<path style="fill:#FFFFFF;" d="M548.4,577.9c-0.8-0.4-2.9-1.3-5.2-2c-0.2-0.1-0.3,0.1-0.4,0.2c-0.1,0.5-0.2,1.6,0.2,2.3
					c0.7,1.3,2.9,2.7,5.5,0C548.6,578.2,548.6,578,548.4,577.9z"/>
			</g>
			<g>
				<path style="fill:#FF867A;" d="M555.4,576.1c0.3-0.3,0.6-0.7,0.9-1.1c0.5-0.8,1.4-1.8,2.1-0.5c1.1,1.9-1.7,5.9-3.7,4.9
					C553.1,578.7,554.6,576.9,555.4,576.1z"/>
			</g>
			<g>
				<path style="fill:#434A59;" d="M550.7,570.3c0.6,0.4,1.2,0.9,1.6,1.5c0.2,0.3-0.2,0.6-0.4,0.3c-0.4-0.5-0.9-1-1.4-1.3
					C550.2,570.6,550.4,570.1,550.7,570.3z"/>
			</g>
			<g>
				<path style="fill:#434A59;" d="M545.2,568.9c0.4-0.1,0.9-0.1,1.3-0.1c0.3,0,0.4,0.5,0.1,0.5c-0.4,0-0.9,0.1-1.3,0.1
					C544.9,569.5,544.9,569,545.2,568.9z"/>
			</g>
			<g>
				<path style="fill:#BC3F3F;" d="M521.7,928.5C521.7,928.5,521.7,928.5,521.7,928.5c0.3,0,0.5-0.3,0.5-0.6c0-0.1-0.5-9.3-1.3-14.2
					c-0.8-4.9,1.5-86,2.3-99c0.9-13.1,0-73.5,0-74.2c0-0.3-0.2-0.5-0.5-0.5c-0.3,0-0.5,0.3-0.5,0.6c0,0.6,0.9,61,0,74.1
					c-0.8,13-3.1,94.2-2.3,99.2c0.7,4.8,1.3,14,1.3,14.1C521.2,928.3,521.4,928.5,521.7,928.5z"/>
			</g>
			<g>
				<path style="fill:#BC3F3F;" d="M598.9,930.4c-0.2-0.1-0.3-0.4-0.2-0.6c0.1-2.4-8.3-49.9-9.7-55.8c-1.4-5.8-10.2-60.3-10.9-66.6
					c-0.7-6.4-9.4-67.5-9.5-68.1c0-0.3,0.2-0.6,0.4-0.6c0.3,0,0.5,0.2,0.6,0.5c0.1,0.6,8.7,61.7,9.5,68.2
					c0.7,6.3,9.5,60.7,10.9,66.5c0.7,3,3.4,17.6,5.5,30c1.2,7.1,2.3,13.3,3,17.9c1.3,8.2,1.2,8.4,1,8.7c-0.1,0.1-0.3,0.2-0.4,0.2
					C599.1,930.5,599,930.4,598.9,930.4z M598.7,929.8C598.7,929.8,598.7,929.8,598.7,929.8L598.7,929.8z M598.8,929.6
					C598.8,929.6,598.8,929.6,598.8,929.6C598.8,929.6,598.8,929.6,598.8,929.6z M598.8,929.6C598.8,929.6,598.8,929.6,598.8,929.6
					C598.8,929.6,598.8,929.6,598.8,929.6z"/>
			</g>
			<path style="fill:#7FA062;" d="M526.5,654.3c-7.7,2.7-16.2,3.8-22.2,4.3c-0.9,3.2-3.2,11-5.7,20.5c10.6,2.4,30.7-3.9,41.5-12.8
				c11.6-9.4,19.2-30.6,19.2-30.6S540.1,649.4,526.5,654.3z"/>
			<path style="fill:#434A59;" d="M557.6,564.4c0,0,0.6-7.5,4.4-6.7s4.6,5.4,3.3,7.7c-1.3,2.2-4.7,2.9-5.8,2.2
				C558.4,567,557.2,564.7,557.6,564.4z"/>
			<g>
				<path style="fill:#FF867A;" d="M529.4,627.7c-9.2,8.2-17.4,15.2-20.4,13.7c-6.7-3.5-35.8-56-42.1-51c-6.3,5,8.9,85.7,40.8,83.6
					c15-1,28.7-10.8,39-21.8C537.1,646.9,531.5,633.8,529.4,627.7z"/>
				<path style="fill:#82BC3D;" d="M559.8,606c-5.6-1-18.8,11.3-30.5,21.7c2.1,6,7.7,19.1,17.2,24.5c11.6-12.4,19-26.4,19.3-30.9
					C566.4,612.6,564.8,606.9,559.8,606z"/>
			</g>
			<path style="fill:#FF867A;" d="M474.8,588.1c0.7-3.7,3.6-7.6,0.8-7s-3.3,4.4-5.2,5.1c-1.9,0.6-6.9-10.9-8.6-9.4
				c-1.1,1,2.9,6.6,2.5,6.8c-0.4,0.1-3.9-5.9-5.2-4.6c-1.7,1.6-2.3,4.3-1.4,7.1c-0.7-0.6-1.3-1-1.7-0.7c-1,0.9,10.7,20.4,16.7,11.2
				C474.1,594.6,473.7,593.8,474.8,588.1z"/>
			<g>
				<path style="fill:#C66C67;" d="M515.5,646.5c-0.1,0-0.2,0-0.3,0c-0.3-0.1-7.2-2.3-9.5-6.7c-0.3-0.5-0.1-1.1,0.4-1.4
					c0.5-0.3,1.1-0.1,1.3,0.4c1.9,3.6,8.3,5.6,8.3,5.7c0.5,0.2,0.8,0.7,0.7,1.3C516.3,646.2,516,646.5,515.5,646.5z"/>
			</g>
			<path style="fill:#404859;" d="M196.4,940.6c-2.8-1.3-3.2-3.9-4.4-6.3c-0.1-0.2-0.6-3.7-0.6-4c0-1.2-3.4-4.4-5-1.9
				c-3.1,5-7-2.6-6.8-0.6c0.6,6.2-1.6,16.1,0.6,16.8c4.7,1.4,26.7,3,27.1,0.6C207.7,943.8,201.3,942.8,196.4,940.6z"/>
			<path style="fill:#404859;" d="M85.2,892.4c0.1-0.2,10.2-9,10.4-9.2c0.9-0.8,1.7-6.8-1.2-6.4c-5.7,0.7-2.8-5.7-4.2-4.2
				C86,877,74.1,885.1,74,887.5c-0.6,8.2-2.3,16.5,0.5,24.7C79.3,914.7,84.1,895,85.2,892.4z"/>
			<path style="fill:#82BC3D;" d="M86.7,885.5c4.2,7.9,7.8,7.8,7.8,7.8s59.8-41.4,74.7-76.7c5.8-13.7,7.3-24.5,11.7-43.9
				c5.2-22.5,8.8-42,9.6-42.2c0.7,6.9-0.2,35.1,0.1,50.6c0.5,20.1-1,40.1-4.3,59.9l-9.1,86.6c0,0,8.8,4.9,11.7,5.7
				c4,0.9,10,0.3,10,0.3s27-83.7,29.7-137.4c1.9-38.2,1.6-51.6-1.5-80.6c-0.6-6.2-1.3-12-2.1-17.5c0,0,0,0,0-0.1c0-0.1,0-0.2,0-0.3
				c-3.4-24.9-7.7-42.6-11.1-48.8c-3.4-8-64.2,17.4-64.1,20.8c0.1,5.6,0.1,11.5-0.2,17.7c0,0.3,0,0.6,0,0.9
				c-0.4,9.3-1.3,19.1-2.5,29.2c-0.1,0.8-0.2,1.6-0.3,2.4c-3.2,26.2-13.9,86.9-13.9,86.9l-49.3,69.6C83.6,876.1,84,880.5,86.7,885.5
				z"/>
			<path style="fill:#7FA062;" d="M227.2,715.4c-0.2-2-0.4-3.9-0.6-5.8l-76.5,6.2c0,0,13.3,7.9,35.9,8.3c18.7,0.4,34.9-3.1,41.7-3.9
				C227.6,718.7,227.4,717.1,227.2,715.4z"/>
			<path style="fill:#66844D;" d="M188.3,734.3c1.9-8.4,3.7-16.8,4.1-25.4c0-1.4,2.1-1.4,2,0c-0.3,8.8-2.1,17.4-4.1,26
				C190,736.1,188,735.6,188.3,734.3z"/>
			<path style="fill:#AFBDD7;" d="M145.8,591.5c2.9-9.8,12.7-17.7,22.4-20.1c0,0,0,0,0,0c13.8-4.2,35.1,0.6,41.9,3.3
				c19.1,7.5,11,66.8,15.1,82.7c0.5,1.3,3.9,52.6,4.6,54.2c-5.5,10.4-67.6,14.1-91.4-0.9c1.2-13.5,11.3-36.6,10.9-63.6
				C149,624.4,143.5,599.5,145.8,591.5z"/>
			<path style="fill:#919FB5;" d="M164.6,623.8c0,0,12.5,19,33.1,25.3c11.8,3.6,21.1,3.9,26.8,3.5c-0.4-3.7-0.5-8.3-0.6-13.5
				C214.4,637.5,192.4,633.3,164.6,623.8z"/>
			<path style="fill:#FF867A;" d="M151,591.2c11.8-12.7,29.6,20.4,71,23.6c14.4,1.1,46.6-64.6,58.1-60.7c8.3,2.8-5.8,81-54.5,88.3
				S139.1,604,151,591.2z"/>
			<path style="fill:#C66C67;" d="M217.8,617c3.8-0.1,7.7-0.6,11.4-1.4c1.1-0.2,0.6-2-0.5-1.7c-3.6,0.8-7.4,1.2-11,1.3
				C216.7,615.2,216.7,617.1,217.8,617z"/>
			<path style="fill:#FF867A;" d="M277.2,548.1c1.6-4,1.4-9.9,3.7-7.3c2.3,2.5,0.3,6.6,1.7,8.5c1.4,1.9,13.6-5.6,14.3-3
				c0.5,1.7-7,4.3-6.7,4.7c0.3,0.4,7.5-2.9,7.9-0.7c0.6,2.7-0.6,5.8-3.2,7.8c1-0.1,1.9,0,2.1,0.6c0.5,1.6-23.3,12-23.2-1
				C273.8,554.8,274.7,554.3,277.2,548.1z"/>
			<g>
				<path style="fill:#AFBDD7;" d="M148.9,588.7c10-10.8,29.7,11.6,58.9,21.2c0.2,7.9-4.1,25.9-13.7,31.4
					C162.4,630.9,139.7,598.6,148.9,588.7z"/>
			</g>
			<g>
				<path style="fill:#919FB5;" d="M190.1,603.3c-0.1,0-0.3,0-0.4-0.1c-4.3-2.1-7.7-4.3-11.4-6.6c-2.9-1.9-5.9-3.8-9.8-6
					c-8.5-4.8-15.6-3.4-15.7-3.4c-0.5,0.1-1-0.3-1.1-0.8c-0.1-0.6,0.2-1.1,0.8-1.2c0.3-0.1,7.9-1.5,17,3.6c3.9,2.2,7,4.2,9.9,6
					c3.7,2.4,7,4.5,11.1,6.5c0.5,0.2,0.7,0.8,0.5,1.4C190.8,603.1,190.5,603.3,190.1,603.3z"/>
			</g>
			<g>
				<path style="fill:#66844D;" d="M132.9,820.6c-0.4,0-0.7-0.3-0.8-0.6c-0.9-3.2-0.1-13.1,0-13.5c0-0.5,0.5-0.9,0.9-0.8
					c0.5,0,0.8,0.5,0.8,1c-0.2,2.8-0.7,10.5,0,12.8c0.1,0.5-0.1,1-0.6,1.1C133.1,820.6,133,820.6,132.9,820.6z"/>
			</g>
			<g>
				<g>
					<g>
						<path style="fill:#AF5546;" d="M194.3,532.3c0,0,3.7-5.1-2.1-7.7c-17-7.8-23.5,4.6-22,16.2c1,7.8,7.8,12.9,7.8,12.9
							S194.8,541.3,194.3,532.3z"/>
					</g>
				</g>
				<g>
					<g>
						<path style="fill:#FF867A;" d="M177.9,546.5l-3.7,28c-0.1,4.1,9.8,8.6,15.1,7.1c1.5-0.4,3.9-0.8,2.8-3.8l-5-25.4L177.9,546.5z
							"/>
					</g>
				</g>
				<g>
					<g>
						<path style="fill:#AF5546;" d="M175.9,525.4c0,0-0.5-4.9,5.4-7.3c5.9-2.3,6.4,1,11.7,5.5c5.3,4.4,3.6,11.5-3,16.7
							C185.3,543.9,172.2,534.8,175.9,525.4z"/>
					</g>
				</g>
				<g>
					<g>
						<path style="fill:#FF867A;" d="M178.2,536.5l-1.6,9.9c-0.3,4.4,2,8.7,6.2,10c3.9,1.3,6.4,2,10.6,0.8c3.5-1,4.8-4.8,4-9.5
							c-1-6.1-3.7-11.4-5.3-14.2c-1.7-3-4.5-4.4-7.1-4.1C182,529.6,183.7,533.5,178.2,536.5z"/>
					</g>
				</g>
				<g>
					<g>
						<path style="fill:#C66C67;" d="M190.3,544.6c0.9-0.3,1.6-0.7,2.2-1.4c0.5-0.5,1.2,0.3,0.7,0.8c-0.7,0.7-1.5,1.2-2.5,1.6
							C190.1,545.8,189.7,544.8,190.3,544.6z"/>
					</g>
				</g>
				<g>
					<g>
						<path style="fill:#FFFFFF;" d="M187.4,547.3c1.3-0.3,4.5-0.9,8-1.2c0.3,0,0.5,0.2,0.5,0.4c0,0.8-1.3,2.5-2,3.3
							c-1.4,1.6-4.3,2.6-6.7-1.8C187,547.7,187.1,547.4,187.4,547.3z"/>
					</g>
				</g>
				<g>
					<g>
						<path style="fill:#FF867A;" d="M178.4,544.7c-0.4-0.6-0.7-1.3-1-2.1c-0.5-1.4-1.6-3.3-3.2-1.5c-2.4,2.5,0.7,9.7,4.2,9
							C181.1,549.5,179.4,546.3,178.4,544.7z"/>
					</g>
				</g>
				<g>
					<g>
						<path style="fill:#AF5546;" d="M184.5,537.4c0,0-2.9,1-2.9,1.3c0,0.3,0.5,0.8,0.5,0.8s3.1-1.6,3.6-1.5c0.5,0.1,0-1-0.5-0.9
							C184.8,537.2,184.5,537.4,184.5,537.4z"/>
					</g>
				</g>
				<g>
					<g>
						<path style="fill:#AF5546;" d="M190.7,535.8c0,0,2.8-0.5,2.9-0.2c0.1,0.2,0,0.9,0,0.9s-3.2,0.1-3.6,0.4
							c-0.3,0.3-0.5-0.9-0.1-1C190.3,535.6,190.7,535.8,190.7,535.8z"/>
					</g>
				</g>
				<path style="fill:#434A59;" d="M192.4,539.8c0.2,0.6,0.6,0.9,0.9,0.8c0.3-0.1,0.5-0.6,0.3-1.2c-0.2-0.6-0.6-0.9-0.9-0.8
					C192.4,538.7,192.3,539.3,192.4,539.8z"/>
				<path style="fill:#434A59;" d="M185.4,541.5c0.2,0.6,0.6,0.9,0.9,0.8c0.3-0.1,0.5-0.6,0.3-1.2c-0.2-0.6-0.6-0.9-0.9-0.8
					C185.4,540.4,185.3,541,185.4,541.5z"/>
			</g>
		</g>
	</g>
</g>
</svg>
