<svg xmlns="http://www.w3.org/2000/svg" xmlns:xlink="http://www.w3.org/1999/xlink" viewBox="0 0 1000 1000"><defs><style>.cls-1{fill:#e0e0e0;}.cls-2{filter:url(#AI_Shadow_1);}.cls-3{fill:#1b3f63;}.cls-4{fill:#e7f2f2;}.cls-5{fill:#fff;}.cls-6{fill:#434a59;}.cls-7{fill:#edf1f4;}.cls-8{fill:#afa0a1;}.cls-9{fill:#82bc3d;}.cls-10{fill:#f27c79;}.cls-11{fill:#919fb5;}.cls-12{fill:#7fa062;}.cls-13{fill:#ff867a;}.cls-14{fill:#e04a4a;}.cls-15{fill:#bc3f3f;}.cls-16{fill:#c66c67;}.cls-17{fill:#404859;}.cls-18{fill:#66844d;}.cls-19{fill:#afbdd7;}.cls-20{fill:#af5546;}</style><filter id="AI_Shadow_1" name="AI_Shadow_1"><feGaussianBlur result="blur" stdDeviation="2" in="SourceAlpha"/><feOffset result="offsetBlurredAlpha" dx="4" dy="4" in="blur"/><feMerge><feMergeNode in="offsetBlurredAlpha"/><feMergeNode in="SourceGraphic"/></feMerge></filter></defs><g id="Layer_1" data-name="Layer 1"><circle class="cls-1" cx="499" cy="499" r="487"/></g><g id="Layer_2" data-name="Layer 2"><g class="cls-2"><path class="cls-3" d="M477.68,90.37H488c22.18,0,271.58,18,272.5,40.17l21,505.6A38.22,38.22,0,0,1,743,676.31H502a42.24,42.24,0,0,1-41.83-40.17l-21-505.6A38.21,38.21,0,0,1,477.68,90.37Z"/><path class="cls-4" d="M491.78,90.37h241a42.25,42.25,0,0,1,41.84,40.17l21,505.6a38.22,38.22,0,0,1-38.5,40.17h-241a42.24,42.24,0,0,1-41.83-40.17l-21-505.6A38.22,38.22,0,0,1,491.78,90.37Z"/><path class="cls-5" d="M493.37,96H731.19a37.49,37.49,0,0,1,37.12,35.64l20.9,503.57a34.13,34.13,0,0,1-34.38,35.87H520.05a40.45,40.45,0,0,1-40-38.46l-20.8-501A33.92,33.92,0,0,1,493.37,96Z"/><path class="cls-6" d="M578.47,115.12h71.81a2.4,2.4,0,0,0,2.42-2.52l0-.66a2.66,2.66,0,0,0-2.62-2.52H578.23a2.4,2.4,0,0,0-2.41,2.52l0,.66A2.66,2.66,0,0,0,578.47,115.12Z"/><path class="cls-6" d="M660.2,112.27a3,3,0,0,0,3,2.85,2.71,2.71,0,0,0,2.73-2.85,3,3,0,0,0-3-2.85A2.72,2.72,0,0,0,660.2,112.27Z"/><path class="cls-6" d="M564.38,112.27a3,3,0,0,0,3,2.85,2.71,2.71,0,0,0,2.73-2.85,3,3,0,0,0-3-2.85A2.72,2.72,0,0,0,564.38,112.27Z"/><path class="cls-7" d="M498.37,132.47l230,2.86A37.49,37.49,0,0,1,765.45,171L785.63,633.1A34.13,34.13,0,0,1,751.25,669L523.61,668c-21.24,0-38.44-19.14-39.33-40.38L464.21,168.11A33.91,33.91,0,0,1,498.37,132.47Z"/><path class="cls-5" d="M453.39,316.47h.5a1.82,1.82,0,0,0,1.83-1.9l-3.79-91.21a2,2,0,0,0-2-1.9h-.5a1.82,1.82,0,0,0-1.83,1.9l3.79,91.21A2,2,0,0,0,453.39,316.47Z"/><path class="cls-8" d="M732.22,168.65l-235-.72c-27.27,0-26.25,23.78-25.12,51l.12,8.25c1.13,27.27,7.17,47.15,34.44,47.15L732.93,273c27.28,0,31.77-20.88,30.64-48.16l.08-6.13C762.52,191.38,759.49,168.65,732.22,168.65Z"/><path class="cls-9" d="M737.73,280.41l-234.84,1.12c-27.28,0-26.26,23.77-25.12,51l.11,8.25C479,368.1,485.05,388,512.33,388l226.11-3.25c27.28,0,31.77-20.89,30.64-48.16l.08-6.14C768,303.15,765,280.41,737.73,280.41Z"/><rect class="cls-5" x="501.71" y="196.87" width="230.19" height="14.12" rx="7.06" transform="translate(-1.1 3.35) rotate(-0.31)"/><rect class="cls-5" x="501.88" y="227.19" width="94.99" height="14.12" rx="7.06" transform="translate(-1.26 2.98) rotate(-0.31)"/><rect class="cls-5" x="606.69" y="226.62" width="94.73" height="14.12" rx="7.06" transform="translate(-1.26 3.55) rotate(-0.31)"/><ellipse class="cls-5" cx="721.66" cy="233.31" rx="10.4" ry="7.06" transform="translate(-1.25 3.92) rotate(-0.31)"/><path class="cls-8" d="M741.31,394.12l-235,1.87c-27.28.3-26,24.06-24.56,51.33l.21,8.24c1.43,27.26,7.68,47.07,35,46.77l226.29-3.92c27.27-.3,31.53-21.23,30.1-48.49l0-6.14C771.86,416.52,768.59,393.82,741.31,394.12Z"/><rect class="cls-5" x="511.21" y="423.62" width="230.19" height="14.12" rx="7.06" transform="translate(-6.99 10.35) rotate(-0.94)"/><rect class="cls-5" x="511.71" y="454.67" width="94.99" height="14.12" rx="7.06" transform="translate(-7.51 9.25) rotate(-0.94)"/><rect class="cls-5" x="616.51" y="452.95" width="94.73" height="14.12" rx="7.06" transform="translate(-7.47 10.97) rotate(-0.94)"/><ellipse class="cls-5" cx="731.47" cy="458.9" rx="10.4" ry="7.06" transform="translate(-7.44 12.08) rotate(-0.94)"/><path class="cls-8" d="M747.16,505.82l-235,4.48c-27.27.6-25.72,24.35-24,51.59l.3,8.25c1.73,27.24,8.21,47,35.48,46.37l226.23-6.42c27.27-.61,31.3-21.59,29.57-48.83l-.06-6.14C778,527.88,774.43,505.22,747.16,505.82Z"/><rect class="cls-5" x="517.47" y="536.59" width="230.19" height="14.12" rx="7.06" transform="translate(-14.72 17.61) rotate(-1.58)"/><rect class="cls-5" x="518.32" y="568.39" width="94.99" height="14.12" rx="7.06" transform="translate(-15.62 15.79) rotate(-1.58)"/><rect class="cls-5" x="623.1" y="565.51" width="94.73" height="14.12" rx="7.06" transform="translate(-15.5 18.67) rotate(-1.58)"/><ellipse class="cls-5" cx="738.04" cy="570.7" rx="10.4" ry="7.06" transform="translate(-15.42 20.52) rotate(-1.58)"/><rect class="cls-5" x="505.75" y="309.84" width="230.19" height="14.12" rx="7.06" transform="translate(-1.71 3.37) rotate(-0.31)"/><rect class="cls-5" x="505.91" y="340.15" width="94.99" height="14.12" rx="7.06" transform="translate(-1.88 3.01) rotate(-0.31)"/><rect class="cls-5" x="610.73" y="339.58" width="94.73" height="14.12" rx="7.06" transform="translate(-1.87 3.58) rotate(-0.31)"/><ellipse class="cls-5" cx="725.7" cy="346.27" rx="10.4" ry="7.06" transform="translate(-1.87 3.94) rotate(-0.31)"/><path class="cls-6" d="M619.54,277a6.67,6.67,0,0,1-6.52-6.82V230.72a6.52,6.52,0,1,1,13,0v39.41A6.67,6.67,0,0,1,619.54,277Z"/><path class="cls-6" d="M706.9,347.51H669.25a6.83,6.83,0,0,1,0-13.64H706.9a6.83,6.83,0,0,1,0,13.64Z"/><path class="cls-6" d="M667.46,295a6.39,6.39,0,0,1-5.17-2.67,7,7,0,0,1,1.21-9.56l29.9-23.95a6.32,6.32,0,0,1,9.13,1.27,7,7,0,0,1-1.21,9.56l-29.91,24A6.32,6.32,0,0,1,667.46,295Z"/><path class="cls-10" d="M200.19,579.37c7.15-16,63.26,24.59,63.26,24.59s38-50.22,47.33-44.68c10.75,6.37-6.23,52.28-33.82,74.55C250.67,655.06,193,595.53,200.19,579.37Z"/><path class="cls-11" d="M200.19,579.37c-4.88,10.92,19.91,41.67,44.61,53.89,7.06-9.24,10.55-25.64,11.94-34C241.64,589.14,205.81,566.77,200.19,579.37Z"/><path class="cls-10" d="M502.1,621.38c-6.81,6.22-12.52,10.72-14.9,9.49-6.7-3.46-35.81-56-42.14-51s8.92,85.68,40.79,83.64c12.89-.83,24.79-8.2,34.43-17.26C509.92,638.78,504.28,626.88,502.1,621.38Z"/><path class="cls-12" d="M544.11,610.75c.55-8.64-2.36-15.58-7.27-16.42-6.47-1.12-22.42,15.79-34.74,27,2.18,5.5,7.82,17.4,18.18,24.86C534.48,632.9,543.78,615.9,544.11,610.75Z"/><polygon class="cls-5" points="594.9 367.86 451.9 621.45 419.5 535.63 291.37 606.59 261.19 551.38 386.79 477.49 303.34 425.43 594.9 367.86"/><path class="cls-3" d="M594.9,367.86l-143,253.59-32.4-85.83-128.13,71-30.18-55.21,125.6-73.89-83.45-52.06L594.9,367.86Zm9.52-16.71a17.86,17.86,0,0,0-13-2.41L299.89,406.31A19.06,19.06,0,0,0,285,422a19.8,19.8,0,0,0,8.79,20.11L349.68,477l-97.59,57.42a19.34,19.34,0,0,0-8.81,11.78,20.27,20.27,0,0,0,1.78,14.85l30.17,55.2a19.05,19.05,0,0,0,6.61,7,17.89,17.89,0,0,0,18.22.49L409.84,563l24.77,65.61a19.2,19.2,0,0,0,7.78,9.56,17.91,17.91,0,0,0,8.06,2.69,18.38,18.38,0,0,0,17.46-9.51l143-253.59a20.2,20.2,0,0,0-.8-21.07,18.72,18.72,0,0,0-5.69-5.53Z"/><path class="cls-6" d="M604.87,941.47a5.44,5.44,0,0,0-3.8,3.89c-.21,1.17-3.08.69-5.05-.35s-2.54-2.72-4.47-4.91a5.31,5.31,0,0,0-3-1.89,12.72,12.72,0,0,1-.64,2.68c-1,2.35-.31,6.19,1.63,6.72s18.69,1.72,22.14-.27C613.72,946.14,609.1,943.78,604.87,941.47Z"/><path class="cls-13" d="M591.55,940.1C593.48,942.29,594,944,596,945s4.84,1.52,5.05.35a5.44,5.44,0,0,1,3.8-3.89c-2.76-1.52-5.37-3-5.82-4.13-1.16-2.86-1.42-7.22-2.62-8s-7.19-.39-7.31,1.82c0,0-.15,4-.62,7A5.31,5.31,0,0,1,591.55,940.1Z"/><path class="cls-6" d="M502.85,941.44A5.37,5.37,0,0,1,507,945c.3,1.14,3.12.39,5-.83s2.3-3,4-5.31a5.37,5.37,0,0,1,2.88-2.17,12.47,12.47,0,0,0,.86,2.6c1.19,2.25.85,6.14-1,6.85s-18.46,3.48-22.07,1.83C494.44,946.93,498.83,944.14,502.85,941.44Z"/><path class="cls-13" d="M516,938.82c-1.72,2.36-2.14,4.09-4,5.31s-4.7,2-5,.83a5.37,5.37,0,0,0-4.12-3.52c2.62-1.77,5.08-3.5,5.44-4.66.9-3,.79-7.32,1.92-8.21s7.13-1.07,7.44,1.12c0,0,.49,4,1.22,7A5.37,5.37,0,0,0,516,938.82Z"/><path class="cls-14" d="M564.3,685.92c-4.94-18.69-51.06-35.08-57.91-8.39-2.1,8.2-10.38,14.53-13.09,42.47-4.81,49.6,8.64,207.17,12.68,210.22s19.1,6.13,20.11.95c1.29-6.63,5.28-173.46,4.25-195.16,1.21,6.81,48.88,192,52.06,196.17s14.39,3,19.55-.53c1.49-1-26.05-168.61-26.05-168.61S569.29,704.81,564.3,685.92Z"/><path class="cls-15" d="M520.68,741.7c-14.16-1.82-23.29-4.49-28.24-6.28.13-4.84.34-9.22.65-13.06,3.79,1.06,12.72,3.39,27.84,6.35,20.91,4.1,47.28,8.6,47.28,8.6a140.3,140.3,0,0,1-36.36,5.09c-.86-3.52-1.39-5.75-1.51-6.39.07,1.48.12,3.64.15,6.38A90.19,90.19,0,0,1,520.68,741.7Z"/><path class="cls-9" d="M578.65,734.29c-4.08-23.39-9.15-52.7-11.24-77.43-1.79-21.12,2.15-40,.39-46.67-2.89-10.94-9.53-16.5-23-17.86-14.63-1.48-18.66,6.92-24.91,14.84-4.84,6.13-7.85,24.4-15.43,51-1.92,6.73-12,41.11-14.88,61.86C486.3,743.8,579.59,739.67,578.65,734.29Z"/><path class="cls-6" d="M559.73,564.38a10.43,10.43,0,0,0-6.54-2.76c-.77,0-4.84-1.18-6.74,2.28s1.18,11.4,1.6,12.75,1.56,7.94,3.36,9.16,2.87-1.58,5.55-3.71S567,571.22,559.73,564.38Z"/><path class="cls-13" d="M553.6,580.94l1.54,14.18c.07,2.35-8.18,6.64-11.78,3.78-1.05-.84,2.59-6.47,2.59-6.47L548.73,582Z"/><path class="cls-16" d="M546.86,589l1.42-5.35,4-.32S551.34,588.78,546.86,589Z"/><path class="cls-13" d="M554.36,572l1.39,4.55a7.65,7.65,0,0,1-7.69,8c-5.22-.18-7.63-1.59-7-6.62.37-2.94,3.53-7.93,4.78-9.85,1.46-2.25,3.69-3.08,5.64-2.5S550.71,568.33,554.36,572Z"/><path class="cls-16" d="M545.46,583.06c1.79.29,6.81.28,6.84.28a8.27,8.27,0,0,1-1.57,1,7.23,7.23,0,0,1-2.67.23c-4-.14-6.4-1-7-3.74C542.16,581.34,544.21,582.85,545.46,583.06Z"/><path class="cls-16" d="M546.58,575a3.8,3.8,0,0,1-1.25-1.33c-.24-.42-.82,0-.58.47a4.35,4.35,0,0,0,1.39,1.47C546.54,575.89,547,575.29,546.58,575Z"/><path class="cls-6" d="M549.83,572.41a.35.35,0,0,0-.5,0,1.42,1.42,0,0,0-.36.66.46.46,0,0,0,.45.55C549.8,573.65,550.3,572.69,549.83,572.41Z"/><path class="cls-6" d="M545.3,570.79a.36.36,0,0,0-.5,0,1.46,1.46,0,0,0-.36.67.46.46,0,0,0,.44.55C545.27,572,545.77,571.07,545.3,570.79Z"/><path class="cls-5" d="M548.38,577.89a46,46,0,0,0-5.17-2,.3.3,0,0,0-.37.25,3.82,3.82,0,0,0,.18,2.26c.73,1.33,2.92,2.65,5.45-.05A.31.31,0,0,0,548.38,577.89Z"/><path class="cls-13" d="M555.39,576.07a6.74,6.74,0,0,0,.86-1.13c.49-.77,1.38-1.8,2.12-.49,1.07,1.92-1.73,5.88-3.74,4.94C553.13,578.69,554.55,576.93,555.39,576.07Z"/><path class="cls-6" d="M550.68,570.3a6.25,6.25,0,0,1,1.61,1.47.25.25,0,1,1-.4.31,5.44,5.44,0,0,0-1.41-1.3C550.2,570.6,550.39,570.12,550.68,570.3Z"/><path class="cls-6" d="M545.19,568.92c.42-.07.85-.11,1.28-.14s.4.49.07.52-.86.07-1.29.14S544.87,569,545.19,568.92Z"/><path class="cls-15" d="M521.69,928.49h0a.52.52,0,0,0,.49-.57c0-.09-.52-9.33-1.28-14.18s1.48-86,2.32-99,0-73.55,0-74.16a.52.52,0,1,0-1,0c0,.61.85,61,0,74.06s-3.08,94.24-2.31,99.2c.75,4.8,1.26,14,1.27,14.07A.52.52,0,0,0,521.69,928.49Z"/><path class="cls-15" d="M598.92,930.36a.57.57,0,0,1-.19-.6c.11-2.44-8.26-49.89-9.66-55.76s-10.23-60.31-10.93-66.6-9.37-67.53-9.46-68.14a.54.54,0,0,1,.44-.62.53.53,0,0,1,.59.46c.08.61,8.74,61.73,9.46,68.17.7,6.28,9.52,60.67,10.91,66.47.72,3,3.38,17.62,5.54,30,1.24,7.13,2.29,13.31,3,17.88,1.31,8.22,1.19,8.39,1,8.66a.52.52,0,0,1-.73.12Zm-.19-.57Zm.08-.19Zm0,0Z"/><path class="cls-12" d="M526.52,654.27a87.32,87.32,0,0,1-22.19,4.27c-.91,3.17-3.18,11-5.71,20.5,10.6,2.4,30.66-3.95,41.52-12.78,11.56-9.4,19.21-30.6,19.21-30.6S540.14,649.41,526.52,654.27Z"/><path class="cls-6" d="M557.58,564.38s.55-7.51,4.4-6.67,4.61,5.45,3.31,7.68-4.69,2.88-5.79,2.23S557.24,564.74,557.58,564.38Z"/><path class="cls-13" d="M529.36,627.74c-9.18,8.17-17.45,15.18-20.4,13.66-6.69-3.46-35.8-56-42.13-51s8.92,85.69,40.79,83.64c15-1,28.65-10.78,39-21.81C537.07,646.88,531.5,633.78,529.36,627.74Z"/><path class="cls-9" d="M559.85,606c-5.63-1-18.8,11.33-30.49,21.73,2.14,6,7.71,19.14,17.23,24.48,11.61-12.42,19-26.36,19.29-30.94C566.43,612.64,564.76,606.86,559.85,606Z"/><path class="cls-13" d="M474.85,588.13c.73-3.66,3.61-7.65.85-7s-3.28,4.44-5.17,5.06-6.9-10.91-8.6-9.44c-1.13,1,2.91,6.64,2.48,6.76s-3.86-5.87-5.22-4.57a6.93,6.93,0,0,0-1.43,7.14c-.67-.61-1.32-1-1.71-.67-1.05.86,10.65,20.4,16.72,11.2C474.08,594.57,473.72,593.76,474.85,588.13Z"/><path class="cls-16" d="M515.53,646.49a.86.86,0,0,1-.28,0c-.3-.09-7.22-2.28-9.51-6.65a1.05,1.05,0,0,1,.39-1.4,1,1,0,0,1,1.33.41c1.9,3.63,8.28,5.65,8.34,5.67a1,1,0,0,1,.67,1.28A1,1,0,0,1,515.53,646.49Z"/><path class="cls-17" d="M196.43,940.64c-2.79-1.26-3.16-3.85-4.35-6.31-.08-.16-.56-3.7-.56-4,0-1.22-3.4-4.44-5-1.89-3.07,5-7-2.64-6.79-.55.56,6.21-1.63,16.11.58,16.78,4.72,1.43,26.74,3,27.14.58C207.74,943.82,201.26,942.83,196.43,940.64Z"/><path class="cls-17" d="M85.17,892.43c.07-.17,10.21-9,10.41-9.15.89-.79,1.72-6.77-1.15-6.42-5.66.68-2.76-5.68-4.19-4.21C86,877,74.14,885.13,74,887.54c-.63,8.21-2.28,16.45.5,24.7C79.34,914.69,84.1,895,85.17,892.43Z"/><path class="cls-9" d="M86.66,885.5c4.22,7.91,7.81,7.81,7.81,7.81s59.8-41.44,74.74-76.74c5.79-13.67,7.31-24.54,11.75-44,5.15-22.54,8.81-42,9.6-42.22.7,6.93-.22,35.15.14,50.64A316.23,316.23,0,0,1,186.37,841l-9.14,86.55s8.77,5,11.74,5.66c4,.94,10,.34,10,.34s27-83.68,29.72-137.43c1.92-38.15,1.58-51.56-1.45-80.64-.64-6.16-1.34-12-2.1-17.5v-.08c0-.11,0-.22,0-.34-3.42-24.94-7.74-42.61-11.13-48.83-3.35-8-64.19,17.42-64.1,20.8.14,5.61.07,11.54-.2,17.69,0,.3,0,.6-.05.91-.43,9.28-1.3,19.1-2.5,29.21-.09.79-.19,1.57-.28,2.36-3.22,26.18-13.91,86.86-13.91,86.86l-49.3,69.63A27,27,0,0,0,86.66,885.5Z"/><path class="cls-12" d="M227.23,715.43q-.3-2.92-.63-5.76l-76.47,6.16s13.35,7.86,35.86,8.31c18.73.37,34.88-3.11,41.73-3.94C227.56,718.66,227.4,717.07,227.23,715.43Z"/><path class="cls-18" d="M188.31,734.25c1.94-8.36,3.74-16.78,4.06-25.41a1,1,0,1,1,2,0c-.32,8.82-2.15,17.43-4.12,26C190,736.13,188,735.57,188.31,734.25Z"/><path class="cls-19" d="M145.84,591.47c2.92-9.84,12.73-17.68,22.39-20.12v0c13.78-4.18,35.08.63,41.93,3.34,19.09,7.54,11,66.76,15.09,82.68.51,1.28,3.94,52.65,4.62,54.21-5.48,10.42-67.61,14.09-91.42-.92,1.19-13.47,11.35-36.58,10.93-63.55C149,624.36,143.47,599.47,145.84,591.47Z"/><path class="cls-11" d="M164.57,623.77s12.46,19,33.11,25.29c11.85,3.62,21.07,3.9,26.79,3.48-.38-3.68-.53-8.31-.6-13.48A379.86,379.86,0,0,1,164.57,623.77Z"/><path class="cls-13" d="M151,591.22c11.78-12.68,29.58,20.37,71,23.65,14.42,1.14,46.62-64.62,58.14-60.69,8.31,2.83-5.78,81-54.54,88.25S139.08,604,151,591.22Z"/><path class="cls-16" d="M217.83,617a63.78,63.78,0,0,0,11.43-1.41c1.1-.25.6-2-.49-1.75a61.57,61.57,0,0,1-11,1.33C216.66,615.23,216.71,617.05,217.83,617Z"/><path class="cls-13" d="M277.23,548.09c1.64-4,1.45-9.86,3.71-7.34s.28,6.55,1.69,8.48,13.61-5.6,14.29-3c.45,1.73-7,4.29-6.71,4.71s7.46-2.89,7.93-.7a8,8,0,0,1-3.22,7.84c1-.11,1.9,0,2.07.56.45,1.56-23.29,12-23.19-1C273.83,554.79,274.7,554.27,277.23,548.09Z"/><path class="cls-19" d="M148.87,588.7c10-10.79,29.66,11.63,58.85,21.17.17,8-4.09,25.89-13.68,31.45C162.36,630.9,139.71,598.55,148.87,588.7Z"/><path class="cls-11" d="M190.08,603.35a.86.86,0,0,1-.41-.1,101.48,101.48,0,0,1-11.35-6.61c-2.91-1.86-5.91-3.8-9.79-6-8.48-4.76-15.61-3.43-15.68-3.42a1,1,0,0,1-1.15-.82,1,1,0,0,1,.78-1.2c.31-.06,7.85-1.5,17,3.63,3.93,2.2,7,4.15,9.89,6a99,99,0,0,0,11.14,6.49,1.06,1.06,0,0,1,.49,1.37A1,1,0,0,1,190.08,603.35Z"/><path class="cls-18" d="M132.91,820.57a.88.88,0,0,1-.83-.64c-.91-3.17-.07-13.08,0-13.5a.88.88,0,0,1,.93-.82.89.89,0,0,1,.78,1c-.24,2.77-.71,10.46,0,12.82a.9.9,0,0,1-.57,1.12A.77.77,0,0,1,132.91,820.57Z"/><path class="cls-20" d="M194.32,532.27s3.74-5.07-2.09-7.73c-17-7.78-23.47,4.58-22,16.2,1,7.78,7.75,12.85,7.75,12.85S194.79,541.28,194.32,532.27Z"/><path class="cls-13" d="M177.89,546.5l-3.74,28c-.1,4.12,9.79,8.62,15.12,7.07,1.46-.42,3.92-.8,2.84-3.77l-5-25.43Z"/><path class="cls-20" d="M176,525.4s-.53-4.92,5.36-7.27,6.41,1,11.67,5.46,3.6,11.51-3,16.7C185.35,543.91,172.19,534.79,176,525.4Z"/><path class="cls-13" d="M178.17,536.51l-1.57,9.93c-.31,4.41,2,8.66,6.18,10,3.89,1.27,6.42,2,10.64.77,3.52-1,4.79-4.79,4-9.49a44.48,44.48,0,0,0-5.29-14.21,7.55,7.55,0,0,0-7.1-4.15C182,529.64,183.73,533.51,178.17,536.51Z"/><path class="cls-16" d="M190.34,544.59a5.32,5.32,0,0,0,2.24-1.4c.48-.5,1.16.34.68.83a6.1,6.1,0,0,1-2.47,1.55C190.14,545.79,189.68,544.81,190.34,544.59Z"/><path class="cls-5" d="M187.41,547.32a66.37,66.37,0,0,1,8-1.25.44.44,0,0,1,.48.44c0,.77-1.3,2.48-2,3.31-1.43,1.64-4.32,2.65-6.75-1.83A.44.44,0,0,1,187.41,547.32Z"/><path class="cls-13" d="M178.4,544.66a11.11,11.11,0,0,1-1-2.06c-.5-1.37-1.56-3.28-3.22-1.54-2.41,2.54.67,9.66,4.24,9C181.1,549.52,179.44,546.29,178.4,544.66Z"/><path class="cls-20" d="M184.54,537.44s-2.87,1-2.86,1.29.53.82.53.82a19.71,19.71,0,0,1,3.56-1.51c.48.07,0-1-.48-.95A1.44,1.44,0,0,0,184.54,537.44Z"/><path class="cls-20" d="M190.71,535.76s2.76-.47,2.9-.23,0,.93,0,.93a18.07,18.07,0,0,0-3.56.36c-.33.28-.54-.86-.14-1A1.28,1.28,0,0,1,190.71,535.76Z"/><path class="cls-6" d="M192.43,539.82c.18.55.6.91.93.8s.46-.64.29-1.19-.59-.91-.93-.8S192.26,539.27,192.43,539.82Z"/><path class="cls-6" d="M185.44,541.52c.18.55.59.91.93.8s.46-.64.28-1.19-.59-.91-.92-.8S185.27,541,185.44,541.52Z"/></g></g></svg>