<?xml version="1.0" encoding="utf-8"?>
<!-- Generator: Adobe Illustrator 26.0.3, SVG Export Plug-In . SVG Version: 6.00 Build 0)  -->
<svg version="1.1" xmlns="http://www.w3.org/2000/svg" xmlns:xlink="http://www.w3.org/1999/xlink" x="0px" y="0px"
	 viewBox="0 0 1000 1000" style="enable-background:new 0 0 1000 1000;" xml:space="preserve">
<g id="Layer_1">
	<circle style="fill:#0F7AB7;" cx="499" cy="499" r="487"/>
	<g>
		<g>
			<path style="fill:#5CBEC6;" d="M216.6,32h217.9c41.9,0,76.3,34.3,76.3,76.3v66.4c0,41.9-34.3,76.3-76.3,76.3H216.6
				c-41.9,0-76.3-34.3-76.3-76.3v-66.4C140.3,66.3,174.6,32,216.6,32z"/>
			<g>
				<polygon style="fill:#5CBEC6;" points="358.1,208.1 452.7,300.4 427.5,208.1 				"/>
			</g>
		</g>
		<g>
			<g>
				<g>
					<path style="fill:#FFFFFF;" d="M421.1,121.4H229.9c-5,0-9.2-4.1-9.2-9.2v-0.6c0-5,4.1-9.2,9.2-9.2h191.3c5,0,9.2,4.1,9.2,9.2
						v0.6C430.3,117.3,426.2,121.4,421.1,121.4z"/>
				</g>
			</g>
			<g>
				<g>
					<path style="fill:#FFFFFF;" d="M298,161.6h-68.2c-5,0-9.2-4.1-9.2-9.2v-0.6c0-5,4.1-9.2,9.2-9.2H298c5,0,9.2,4.1,9.2,9.2v0.6
						C307.2,157.5,303.1,161.6,298,161.6z"/>
				</g>
			</g>
			<g>
				<g>
					<path style="fill:#FFFFFF;" d="M393.2,161.6h-67.9c-5,0-9.2-4.1-9.2-9.2v-0.6c0-5,4.1-9.2,9.2-9.2h67.9c5,0,9.2,4.1,9.2,9.2
						v0.6C402.4,157.5,398.3,161.6,393.2,161.6z"/>
				</g>
			</g>
			<g>
				
					<ellipse transform="matrix(0.1972 -0.9804 0.9804 0.1972 188.7479 534.6908)" style="fill:#FFFFFF;" cx="420.8" cy="152.1" rx="9.5" ry="9.5"/>
			</g>
		</g>
	</g>
	<g>
		<path style="fill:#E04A4A;" d="M631,416.6c0,0-2.5,33.4-46.3,29c-52.6-5.3-68.7-42.8-49.6-58.2c19.1-15.4,75.4-22.3,89.8-9.9
			C639.1,389.9,631,416.6,631,416.6z"/>
		<path style="fill:#404859;" d="M655.8,958.2c6.4-2.8,7.2-8.5,9.9-13.8c0.2-0.4,1.2-8.1,1.2-8.7c0-2.7,7.7-9.7,11.3-4.2
			c7.1,10.9,14.8-6.2,14.4-1.6c-1.2,13.6,5,35.5,0,37c-10.8,3.2-61.1,6.8-62.1,1.6C630,965.3,644.8,963.1,655.8,958.2z"/>
		<path style="fill:#404859;" d="M764,958.2c6.4-2.8,7.2-8.5,9.9-13.8c0.2-0.4,1.2-8.1,1.2-8.7c0-2.7,7.7-9.7,11.3-4.2
			c7.1,10.9,14.8-6.2,14.4-1.6c-1.2,13.6,5,35.5,0,37c-10.8,3.2-61.1,6.8-62.1,1.6C738.2,965.3,753,963.1,764,958.2z"/>
		<path style="fill:#1B3F63;" d="M778,459.5C765.3,431.5,668.6,395,643.1,389c-1.9,28.3-14.9,45.9-30.3,76.4
			c-21.6,42.6,37.5,471.9,37.5,471.9s7.6,5.8,25.6,5.8c23.1,0,27.3-5.8,27.3-5.8l-13.3-398.7l69.2,398.7c0,0,3.5,3.9,26.4,5.6
			c21,1.6,24.4-5.6,24.4-5.6S792.6,491.8,778,459.5z"/>
		<g>
			<path style="fill:#4C3B38;" d="M784.6,497.2L622.8,501c0,0,39.5,22.9,105.2,28c25.4,2,45.2,3,60,3.6
				C786.8,519.4,785.7,507.5,784.6,497.2z"/>
		</g>
		<path style="fill:#E04A4A;" d="M788,398.4c4.3-62,15.5-96.3,9.6-117.4c-7.6-27.1-47.3-45.6-70-48.8c-18.7-2.6-64.6-1-81.2,10.6
			c-26.7,18.7-42.3,250-42.3,250s21.9,14.5,83,22.3c79.6,10.1,106.5,0,106.5,0S783,471.9,788,398.4z"/>
		<path style="fill:#434A59;" d="M789.4,488.3c-1.2-10.9-2.3-25.1-2.6-42.1l-68.8-30.8C717.9,415.4,747.9,472.6,789.4,488.3z"/>
		<g>
			<path style="fill:#C6C0BA;" d="M645.9,395.4L645.9,395.4l86.3-10.1l-0.3,3.4c-0.2,2.6-85.2,12.6-85.2,12.6
				c-0.9,0.1-1.7,0.1-2.6,0l-179-17.2c-3.3-0.3-5.7-3.3-5.4-6.6l0,0L645.9,395.4z"/>
			<polygon style="fill:#E2DDD7;" points="732.1,385.3 645.9,395.4 459.6,377.5 545.9,367.4 			"/>
		</g>
		<path style="fill:#C6C0BA;" d="M645.5,401.3l-182.4-16.9c-2.2-0.2-3.9-2.1-3.9-4.3L459,253.8c0-4.8,3.9-8.7,8.6-8.7l169,17.3
			c4.8,0,8.7,3.9,8.7,8.6L645.5,401.3z"/>
		<path style="fill:#FFFFFF;" d="M546.1,322.3c0.4,6.1-2.9,11.5-7.4,12c-4.5,0.5-8.5-4.1-8.9-10.3c-0.4-6.1,2.9-11.5,7.4-12
			C541.7,311.5,545.6,316.2,546.1,322.3z"/>
		<g>
			<path style="fill:#4C3B38;" d="M689.9,539.9c-0.7,0-1.3-0.5-1.3-1.2c-0.3-8.5-9.2-19.9-9.3-20.1c-0.4-0.6-0.3-1.4,0.2-1.8
				c0.6-0.4,1.4-0.3,1.8,0.2c0.4,0.5,9.6,12.2,9.9,21.6C691.2,539.3,690.7,539.9,689.9,539.9C690,539.9,689.9,539.9,689.9,539.9z"/>
		</g>
		<g>
			<path style="fill:#4C3B38;" d="M798.8,929.6c0,0-0.1,0-0.1,0c-0.3-0.1-0.4-0.3-0.4-0.6c0-0.1,2.2-9.6,0-22.3
				c-1.6-9.1-1-22.3-0.4-34c0.2-4.9,0.4-9.6,0.4-13.3c0-7.1-0.8-17.6-1.5-26.8c-0.5-6.3-0.9-12.2-1.1-16.2
				c-0.2-5.2-2.2-33.4-4.1-60.7c-1.7-24.2-3.5-49.1-4.1-59.3c-0.3-4.5-0.7-11.2-1.1-19.2c-1.8-30.3-4.9-81.1-4.9-90.5
				c0-11.6-4.1-57.8-4.1-58.3c0-0.3,0.2-0.5,0.5-0.6c0.3,0,0.5,0.2,0.6,0.5c0,0.5,4.1,46.8,4.1,58.4c0,9.3,3.1,60.1,4.9,90.4
				c0.5,8,0.9,14.7,1.1,19.2c0.6,10.2,2.4,35.2,4.1,59.3c2,28.5,4,55.5,4.1,60.8c0.1,4,0.6,9.9,1,16.2c0.7,9.3,1.5,19.7,1.5,26.9
				c0,3.7-0.2,8.4-0.4,13.3c-0.5,11.6-1.1,24.8,0.4,33.8c2.2,12.9,0,22.6,0,22.7C799.3,929.5,799.1,929.6,798.8,929.6z"/>
		</g>
		<g>
			<path style="fill:#4C3B38;" d="M693,932.1c-0.3,0-0.5-0.2-0.5-0.5v-29.8c0-0.8,0-2.5,0-5.1c0.7-63.4-0.4-101.4-3.2-113
				c-4.9-20.1-9.3-112.2-9.5-120.2c-0.1-2.4-0.5-7.6-1.1-14.3c-1.8-20.2-4.8-54-2.7-69.5c2.8-20.3,3.8-51.3,3.8-51.6
				c0-0.3,0.3-0.5,0.5-0.5c0.3,0,0.5,0.2,0.5,0.5c0,0.3-1,31.4-3.8,51.7c-2.1,15.4,0.9,49.1,2.7,69.2c0.6,6.7,1.1,11.9,1.1,14.3
				c0.3,7.9,4.6,100,9.5,120c2.8,11.7,3.9,49.7,3.2,113.2c0,2.6,0,4.3,0,5.1v29.8C693.5,931.9,693.3,932.1,693,932.1z"/>
		</g>
		<path style="fill:#F27872;" d="M510.1,396.6c5.7,3.2,36.7,4,36.7,4s2.2-9.7-6-14.7c-4.1-2.5-12.4-2.7-12.4-2.7s-0.3-1.2-7.1-1.8
			c-4.8-0.4-5.7,3.3-5.8,5.6c-0.2-1.8-1.2-4.7-4.9-6.6C504.9,377.3,504.5,393.3,510.1,396.6z"/>
		<path style="fill:#E04A4A;" d="M793.5,271.3c0,0,100.2,135,72.8,188.8c-29.5,57.9-177.8-42.8-169.4-65.5
			c1.9-5.2,23.6-30.1,23.6-30.1l95.1,50.3c0,0-47.4-74.6-45.3-109.7C772,274.9,793.5,271.3,793.5,271.3z"/>
		<path style="fill:#434A59;" d="M846.5,439.8c-0.7,0-1.3-0.4-1.7-1c-6.4-12.7-29.8-22.1-30-22.2c-0.9-0.4-1.4-1.4-1-2.4
			c0.4-0.9,1.4-1.4,2.4-1c1,0.4,25,10,31.9,24c0.5,0.9,0.1,2-0.8,2.5C847,439.7,846.8,439.8,846.5,439.8z"/>
		<g>
			<path style="fill:#434A59;" d="M790.6,371.7c-0.5,0-0.9-0.2-1.2-0.6c-23.1-32.6-30.6-83.1-30.7-83.6c-0.1-0.8,0.4-1.6,1.3-1.7
				c0.8-0.1,1.6,0.4,1.7,1.3c0.1,0.5,7.5,50.4,30.1,82.3c0.5,0.7,0.3,1.6-0.4,2.1C791.2,371.6,790.9,371.7,790.6,371.7z"/>
		</g>
		<path style="fill:#FF867A;" d="M707.9,373.6c0,0-23.7-16.8-28.3-12.5c-4.6,4.3-16.8,13-14,14.9c2.7,1.9,10.8-5.6,10.8-5.6
			s-9.6,11.7-8.8,13.6c0.8,1.9,3.2,1.1,3.2,1.1s0.2,2.6,1.8,4c1.6,1.4,11.7-5.9,11.7-5.9s21.7,21,29.5,6.7
			C721.7,375.4,707.9,373.6,707.9,373.6z"/>
		<g>
			<g>
				<g>
					<path style="fill:#725252;" d="M675.8,160.2c-11.1,6.5,3.2,23.4,3.9,26.8c0.6,3.4,16.8,23.3,22.3,22.7c5.6-0.6,9.1-14.3,9-16.1
						c-0.1-1.7,3.4-16.7,0.2-19.2c-3.1-2.5-13.8-7.1-13.8-7.1s4.9-1.1,3.4-2.4C694.1,159,684.3,155.2,675.8,160.2z"/>
				</g>
			</g>
		</g>
		<g>
			<g>
				<g>
					<path style="fill:#FF867A;" d="M703,192.2l13.4,38.4c0.7,3.8-5.8,21.8-22.3,18.1c-2.3-0.5-4.1-11.1-3.1-15.4l2.7-26.5
						L703,192.2z"/>
				</g>
			</g>
		</g>
		<g>
			<g>
				<g>
					<path style="fill:#FF867A;" d="M698,183.1l6.6,14.9c2.1,5.5-2.3,13.7-13.1,15.5c-11.5,1.9-14-3.4-14.8-9.7
						c-1.1-8.2,0.3-22.2,1.2-26.3c1.5-6.7,5.4-1.7,11,1C691.2,179.6,696.3,180.1,698,183.1z"/>
				</g>
			</g>
		</g>
		<g>
			<g>
				<g>
					<path style="fill:#FFFFFF;" d="M677.7,195.2c0,0,5.3,1.3,12.7,0.3c0,0-1.3,3.9-4.1,5.6C683.4,202.8,679.7,200.9,677.7,195.2z"
						/>
				</g>
			</g>
		</g>
		<g>
			<g>
				<g>
					<path style="fill:#FF867A;" d="M701.3,185.2c0.3-1.9,1.3-4.5,3.8-2.7c3.6,2.7,2,11.7-2.7,11.6
						C698.9,194.1,701.1,186.2,701.3,185.2z"/>
				</g>
			</g>
		</g>
		<g>
			<g>
				<g>
					<g>
						<path style="fill:#C66C67;" d="M683.1,191c-1.2-0.1-2.2-0.5-3.2-1.2c-0.7-0.5-1.4,0.7-0.7,1.2c1,0.7,2.2,1.2,3.5,1.3
							C683.7,192.4,684,191.1,683.1,191z"/>
					</g>
				</g>
			</g>
			<g>
				<g>
					<g>
						<path style="fill:#434A59;" d="M687.8,184.5c-0.1,0-0.6-0.1-0.8,0.4c-0.2,0.4-0.3,0.9-0.2,1.3c0.1,0.5,0.6,0.8,1.1,0.6
							C688.5,186.5,688.7,184.6,687.8,184.5z"/>
					</g>
				</g>
			</g>
			<g>
				<g>
					<g>
						<path style="fill:#434A59;" d="M679.3,185.1c-0.1,0-0.6-0.1-0.8,0.4c-0.2,0.4-0.3,0.9-0.2,1.3c0.1,0.5,0.6,0.8,1.1,0.6
							C679.9,187.1,680.2,185.2,679.3,185.1z"/>
					</g>
				</g>
			</g>
		</g>
		<g>
			<g>
				<g>
					<path style="fill:#725252;" d="M680.9,180.7c-1,0.1-2,0.4-2.9,0.8c-0.9,0.3-1.5-1.5-0.7-1.8c1-0.4,2.1-0.7,3.2-0.8
						C681.5,178.7,681.8,180.6,680.9,180.7z"/>
				</g>
			</g>
		</g>
		<g>
			<g>
				<g>
					<path style="fill:#725252;" d="M687.1,179c1.2,0.1,2.4,0.2,3.6,0.4c1.2,0.2,1,2.1-0.3,1.9c-1.2-0.2-2.4-0.3-3.6-0.4
						C685.5,180.8,685.8,178.9,687.1,179z"/>
				</g>
			</g>
		</g>
		<g>
			<g>
				<g>
					<path style="fill:#725252;" d="M695.9,180.1c0,0,1,1.7,1.1,4.7c0.1,3-0.5,5.4,1.9,5.4c2.4,0.1,1.6-2.7,2.5-5.1
						s-1.3-5.4-3.6-5.8C695.4,178.9,695.9,180.1,695.9,180.1z"/>
				</g>
			</g>
		</g>
		<path style="fill:#C66C67;" d="M704.2,204.9c-0.5-1.7-7.6,5.1-15.5,5.9c-5.2,0.6-8.5-0.4-10.2-1.1c1.9,3.2,5.5,5,13,3.7
			c0.5-0.1,1-0.2,1.5-0.3l-0.8,8.1C698.6,219.3,704.8,206.6,704.2,204.9z"/>
		<g>
			<path style="fill:#434A59;" d="M608,445.2c0,0-0.1,0-0.2,0c-0.8-0.1-1.4-0.8-1.3-1.6l4-40.4c0.1-0.8,0.8-1.4,1.6-1.3
				c0.8,0.1,1.4,0.8,1.3,1.6l-4,40.4C609.5,444.7,608.8,445.2,608,445.2z"/>
		</g>
	</g>
</g>
<g id="Layer_2">
</g>
</svg>
